<?xml version="1.0" standalone="no"?>
<!DOCTYPE svg PUBLIC "-//W3C//DTD SVG 20010904//EN"
 "http://www.w3.org/TR/2001/REC-SVG-20010904/DTD/svg10.dtd">
<svg version="1.0" xmlns="http://www.w3.org/2000/svg"
 width="800.000000pt" height="800.000000pt" viewBox="0 0 800.000000 800.000000"
 preserveAspectRatio="xMidYMid meet">

<g transform="translate(0.000000,800.000000) scale(0.100000,-0.100000)"
fill="#000000" stroke="none">
<path d="M21 7996 c12 -10 99 -16 99 -7 0 7 -22 11 -52 11 -28 0 -49 -2 -47
-4z"/>
<path d="M270 7989 c0 -25 -32 -36 -73 -27 -22 5 -42 7 -44 4 -2 -2 -4 -31 -4
-65 -1 -43 4 -66 15 -77 15 -14 15 -18 -1 -45 -10 -16 -20 -29 -23 -29 -4 0
-13 15 -21 32 -13 30 -18 33 -66 36 l-53 3 0 -71 0 -70 38 -1 c20 -1 40 -1 45
0 25 4 -32 -129 -68 -159 -13 -11 -15 -460 -15 -3766 l0 -3754 445 0 c410 0
444 1 438 17 -4 11 -3 14 5 9 8 -5 12 0 12 13 0 12 5 21 10 21 6 0 10 9 10 19
0 11 4 23 10 26 6 3 10 -2 10 -11 0 -16 1 -16 18 -1 23 21 32 21 32 1 0 -11 6
-15 20 -11 13 3 20 0 20 -9 0 -21 48 -18 52 3 3 15 6 14 27 -7 13 -14 21 -20
17 -13 -8 14 25 26 48 17 9 -3 16 -12 16 -19 0 -8 5 -17 12 -21 7 -5 8 -3 3 6
-5 9 -2 10 14 5 11 -3 58 -8 103 -10 46 -2 103 -10 128 -19 40 -14 196 -16
1443 -16 l1397 0 0 293 c0 215 3 296 12 305 8 8 53 12 135 12 103 0 123 2 123
15 0 8 4 15 9 15 5 0 7 -9 4 -20 -5 -18 -14 -20 -89 -21 -46 -1 -88 -3 -94 -4
-5 -1 -26 -3 -46 -4 -24 -1 -33 -5 -28 -13 4 -7 3 -8 -4 -4 -9 5 -12 -37 -12
-164 l0 -172 345 3 345 3 -2 176 -3 175 -135 3 c-182 4 -197 22 -19 22 119 0
138 -2 152 -18 15 -16 17 -47 17 -228 0 -115 3 -246 7 -291 l6 -83 1203 0
c662 0 1204 3 1204 8 -1 13 -50 43 -60 37 -6 -3 -15 -3 -21 1 -8 4 -7 9 2 15
11 7 10 9 -3 9 -10 0 -18 5 -18 11 0 7 -9 9 -21 6 -17 -5 -20 -2 -16 14 3 10
1 19 -4 19 -6 0 -5 8 1 20 6 11 18 20 26 20 8 0 22 16 30 35 8 19 18 34 22 33
11 -2 65 25 86 44 11 10 23 18 27 18 13 0 192 110 216 132 13 12 25 19 29 16
3 -3 16 -48 29 -99 13 -52 42 -149 65 -216 l42 -123 74 0 74 0 0 513 0 513
-55 133 c-30 72 -61 146 -69 164 -32 70 -117 279 -165 407 -29 74 -80 204
-114 288 -44 109 -58 155 -50 160 12 7 60 106 142 292 23 52 51 113 61 135 10
22 37 85 60 140 63 149 149 345 171 388 16 32 19 59 19 188 0 162 -4 183 -70
339 -18 41 -75 176 -127 300 -52 124 -101 239 -108 255 -7 17 -34 80 -60 140
-25 61 -54 128 -64 150 -10 22 -31 69 -45 105 -15 36 -36 82 -47 102 -24 45
-21 64 31 178 21 47 53 119 71 160 17 41 78 176 134 300 56 124 116 257 133
295 33 75 100 229 123 283 8 17 17 32 21 32 5 0 8 170 7 378 -1 300 -3 370
-13 342 -6 -19 -26 -60 -44 -90 -17 -30 -32 -59 -32 -63 0 -5 -13 -37 -29 -70
-15 -34 -31 -73 -35 -85 -11 -33 -41 -41 -121 -30 -38 4 -151 15 -250 23 -99
8 -254 22 -345 30 -91 8 -226 19 -300 26 -74 6 -140 15 -147 20 -7 7 -9 20 -3
37 7 25 120 259 174 362 13 25 29 65 36 90 7 25 17 52 24 60 14 17 27 46 51
109 9 25 24 56 34 70 46 66 171 340 208 454 3 9 9 17 14 17 5 0 9 9 9 20 0 12
11 32 24 45 22 22 26 23 62 10 22 -8 62 -14 91 -15 28 0 63 -4 78 -10 14 -5
54 -12 88 -15 34 -3 81 -11 105 -17 23 -6 68 -8 99 -5 40 4 64 2 86 -10 22
-11 44 -13 83 -8 l54 6 0 180 0 179 -1345 0 c-740 0 -1345 -2 -1345 -4 0 -2
78 -13 173 -25 94 -12 194 -26 220 -31 27 -6 61 -10 77 -10 16 0 31 -4 35 -10
3 -5 -34 -91 -84 -192 -133 -275 -191 -397 -191 -405 0 -4 -27 -62 -59 -128
-71 -146 -88 -192 -72 -208 15 -15 14 -44 -1 -50 -8 -3 -6 -6 4 -6 9 -1 21 -9
27 -18 9 -17 11 -17 25 2 8 11 23 38 34 60 11 22 69 141 130 265 61 124 149
306 196 405 48 99 94 196 104 215 13 26 24 36 46 38 28 3 192 -17 318 -39 106
-18 252 -41 323 -49 39 -4 133 -17 210 -29 116 -17 219 -28 282 -30 30 -2 23
-44 -27 -148 -51 -105 -66 -138 -109 -233 -11 -25 -27 -56 -35 -70 -8 -14 -38
-74 -66 -135 -28 -60 -58 -123 -66 -139 -8 -16 -24 -56 -35 -90 -11 -34 -31
-78 -45 -98 -13 -21 -24 -40 -24 -44 0 -3 -20 -47 -44 -97 -25 -51 -59 -123
-77 -162 -17 -38 -35 -74 -40 -80 -7 -10 -41 -9 -334 15 -82 7 -161 11 -175
10 -38 -3 -50 -2 -109 10 -30 6 -81 10 -113 8 -32 -2 -58 1 -58 5 0 5 -17 7
-38 6 -21 -2 -43 1 -50 5 -17 10 -82 -2 -82 -14 0 -6 11 -10 25 -10 17 0 23
-4 19 -14 -3 -8 -13 -12 -22 -10 -15 5 -15 4 1 -6 9 -6 17 -17 17 -24 0 -15
21 -27 55 -32 85 -14 189 -26 295 -34 69 -6 170 -14 225 -20 55 -5 139 -13
188 -16 48 -4 91 -12 97 -19 6 -7 -11 -52 -53 -136 -34 -68 -89 -182 -122
-254 -32 -71 -101 -217 -152 -324 -51 -106 -93 -195 -93 -198 0 -2 -18 -41
-40 -85 -23 -45 -59 -124 -81 -177 -23 -53 -48 -104 -57 -113 -15 -15 -34 -16
-197 -9 -145 7 -185 5 -207 -6 -15 -7 -31 -13 -35 -13 -5 0 -21 -4 -38 -10
-37 -12 -86 3 -135 42 -50 39 -31 44 29 8 53 -31 96 -40 89 -18 -3 7 -20 16
-39 21 -42 11 -58 26 -65 61 l-5 27 41 -21 c22 -11 38 -25 35 -30 -4 -6 5 -10
19 -10 14 0 29 -7 34 -16 7 -12 14 -14 25 -7 14 7 7 16 -38 51 -56 44 -67 75
-17 48 15 -8 35 -17 44 -20 12 -3 15 -11 11 -22 -5 -14 -2 -16 16 -11 18 4 21
2 16 -11 -3 -9 10 1 29 23 40 45 46 61 16 45 -28 -15 -40 -5 -40 36 0 24 -5
34 -15 34 -9 0 -15 -9 -15 -25 0 -26 -13 -31 -58 -19 -17 5 -21 11 -17 25 7
20 -9 27 -20 9 -3 -5 -11 -10 -16 -10 -5 0 -1 10 10 22 23 24 41 73 38 102 -1
14 18 33 65 65 36 25 64 48 62 51 -3 2 -15 5 -27 5 -16 0 -23 7 -25 24 -6 38
-33 73 -53 68 -10 -3 -20 1 -23 9 -3 8 -1 14 5 14 6 0 9 7 6 15 -4 8 -1 17 4
21 6 3 9 15 6 25 -3 11 -1 19 4 19 5 0 9 -9 9 -21 0 -12 5 -19 13 -16 8 3 11
21 9 60 -4 60 4 89 19 66 7 -11 9 -11 9 2 0 9 6 21 13 27 9 8 11 28 7 73 -7
74 10 89 47 43 14 -18 23 -23 23 -14 0 8 6 26 13 40 19 37 26 69 17 75 -9 5
-32 -29 -36 -50 0 -5 -2 -17 -3 -25 -1 -10 -9 -6 -26 14 -26 32 -24 46 4 46
25 0 57 38 53 63 -3 18 -2 19 11 9 12 -11 19 -8 36 14 23 29 27 44 12 44 -5 0
-13 -9 -16 -21 -4 -13 -12 -18 -22 -15 -8 3 -19 6 -24 6 -5 0 -9 6 -9 14 0 7
-6 19 -13 25 -8 6 -22 37 -32 68 -10 32 -28 66 -38 76 -27 24 -14 34 18 13 15
-10 34 -15 43 -11 13 5 8 10 -21 22 -40 16 -45 36 -10 41 15 2 19 8 16 23 -6
22 -8 23 -34 9 -20 -11 -26 -1 -8 17 7 7 -3 15 -36 25 -45 15 -46 15 -28 -4
17 -19 17 -19 -9 -7 -15 6 -29 18 -32 26 -9 22 19 26 54 8 18 -9 46 -15 68
-12 32 3 34 5 15 12 -24 8 -29 20 -14 29 22 14 -5 46 -65 77 -36 18 -68 37
-71 42 -11 18 -75 39 -86 28 -7 -7 -21 1 -44 27 -19 20 -30 28 -24 17 15 -32
-7 -112 -33 -120 -113 -33 -138 -36 -291 -35 -87 0 -162 4 -165 9 -9 13 -78
20 -110 11 -18 -5 -44 -4 -66 2 -25 6 -44 6 -58 0 -36 -17 -57 -22 -51 -12 10
16 -10 11 -31 -7 -11 -10 -30 -23 -41 -30 -18 -10 -22 -10 -26 5 -4 15 -5 15
-6 -2 -1 -15 -4 -16 -16 -6 -26 22 -47 4 -41 -34 6 -34 5 -35 -50 -55 -63 -24
-155 -27 -205 -7 -19 7 -43 17 -54 21 -11 5 -25 7 -32 6 -6 -1 -31 3 -55 9
-23 6 -65 13 -93 15 -27 3 -51 9 -53 15 -4 12 -51 2 -72 -15 -8 -7 -33 -16
-55 -20 -41 -7 -116 -44 -150 -75 -22 -19 -137 -60 -169 -60 -20 0 -21 5 -19
107 2 133 7 171 22 186 6 6 11 15 11 20 0 5 20 38 45 74 25 35 45 66 45 69 0
9 77 109 99 128 11 11 21 24 21 29 0 5 12 21 26 34 22 20 26 30 21 61 l-6 37
15 -27 c18 -34 26 -36 18 -4 -3 14 0 28 10 37 34 31 44 38 49 33 3 -3 29 10
59 30 29 19 72 40 96 47 23 7 42 16 42 21 0 5 4 6 10 3 6 -3 10 1 10 11 0 13
7 15 35 12 27 -3 34 -1 30 10 -3 7 -5 15 -5 18 0 2 -7 0 -17 -3 -10 -4 -14 -2
-10 5 5 7 -12 13 -49 18 -35 4 -52 10 -46 16 11 11 102 0 102 -13 0 -5 7 -9
15 -9 8 0 15 -5 15 -10 0 -6 18 -9 40 -8 37 3 59 18 26 18 -23 0 -27 16 -6 17
11 1 22 -2 25 -8 4 -5 11 -9 16 -9 6 0 7 5 3 12 -5 7 -2 9 7 6 8 -3 24 1 34 9
17 12 18 15 5 23 -19 12 -40 13 -40 0 0 -5 -16 -3 -38 4 -20 7 -55 16 -77 20
-43 7 -190 -15 -226 -34 -11 -7 -23 -10 -25 -7 -3 2 14 12 38 22 39 15 57 30
58 46 0 4 -18 9 -41 12 -22 3 -43 8 -46 11 -4 3 15 27 40 52 26 25 45 49 43
53 -3 4 3 8 12 9 9 1 35 8 57 16 l40 14 -28 11 c-39 15 -69 14 -95 -4 -12 -9
-42 -22 -66 -29 -25 -8 -72 -34 -105 -60 -61 -46 -83 -49 -36 -5 21 20 35 59
21 59 -3 0 -29 -25 -58 -57 -29 -31 -70 -73 -90 -94 -21 -21 -38 -42 -38 -46
0 -5 -11 -20 -25 -33 -14 -13 -25 -32 -25 -42 0 -10 -5 -18 -11 -18 -11 0 -69
-50 -118 -102 -15 -14 -37 -45 -49 -68 -23 -41 -17 -44 21 -12 9 8 20 12 25 8
4 -4 -5 -18 -20 -30 -23 -17 -28 -30 -28 -63 0 -24 -5 -43 -12 -46 -10 -4 -10
-6 0 -6 26 -2 10 -19 -23 -25 -37 -7 -50 -36 -16 -36 11 0 23 -5 27 -11 5 -8
-3 -10 -27 -6 -33 6 -36 4 -70 -51 -20 -31 -35 -58 -34 -60 2 -2 20 15 41 37
36 36 41 38 58 25 19 -14 19 -14 -2 -14 -23 0 -55 -49 -78 -120 -7 -19 -12
-27 -13 -17 -1 9 -5 17 -10 17 -10 0 -26 -102 -23 -141 2 -14 -4 -31 -12 -38
-8 -7 -12 -19 -9 -27 10 -26 -19 -64 -69 -91 -58 -32 -57 -43 2 -14 56 27 47
5 -16 -36 -27 -18 -46 -33 -42 -33 15 0 64 25 86 44 16 14 22 16 22 5 0 -20
-16 -42 -32 -45 -7 -1 -30 -18 -51 -38 -36 -34 -37 -36 -10 -24 15 6 32 15 38
20 18 15 27 8 21 -17 -4 -15 -2 -25 5 -25 17 0 0 -79 -27 -122 -42 -66 -304
-589 -304 -606 0 -23 27 17 42 60 15 44 37 68 63 68 31 0 45 19 45 65 0 74 7
84 59 87 43 3 46 5 49 32 2 16 -1 49 -8 74 -8 35 -8 52 1 75 11 27 14 28 20
11 4 -10 8 -33 8 -51 1 -38 13 -48 42 -32 20 10 21 9 15 -12 -3 -13 -11 -57
-17 -97 -9 -63 -8 -76 5 -91 17 -19 22 -46 7 -36 -5 3 -13 0 -17 -6 -4 -7 -3
-9 4 -5 5 3 13 0 16 -6 5 -11 7 -11 12 0 4 9 14 6 37 -10 l30 -22 -7 25 c-4
13 -7 35 -7 49 1 27 26 58 38 46 4 -4 2 -10 -4 -14 -6 -4 -11 -33 -12 -65 0
-39 -8 -73 -23 -104 -21 -42 -21 -46 -5 -58 9 -7 17 -16 17 -21 0 -4 -4 -4
-10 2 -5 5 -31 7 -57 4 l-48 -5 -3 -62 c-3 -54 -5 -62 -26 -67 -12 -3 -36 -2
-53 3 -39 11 -53 -1 -53 -48 0 -65 -9 -81 -44 -81 -66 0 -74 -7 -83 -73 l-8
-62 -53 1 c-29 1 -56 4 -59 8 -3 3 -8 31 -12 62 -5 46 -10 58 -28 65 -27 10
-27 10 -101 -131 -33 -63 -79 -151 -102 -195 -23 -44 -85 -163 -138 -265 -52
-102 -98 -189 -102 -195 -4 -5 -60 -113 -125 -240 -174 -340 -269 -524 -351
-678 -41 -75 -74 -144 -74 -153 0 -8 28 -63 61 -121 l62 -106 -18 -56 c-15
-47 -65 -163 -192 -441 -14 -30 -32 -73 -41 -94 l-15 -39 -22 49 c-12 27 -46
92 -75 144 -51 93 -89 162 -155 285 -18 33 -63 114 -100 180 -38 66 -78 137
-89 157 l-21 38 25 47 c14 27 49 93 79 148 29 55 116 222 193 370 77 149 168
324 203 390 252 482 435 842 435 855 0 6 -9 2 -21 -9 -35 -32 -55 -21 -50 30
1 24 5 46 7 48 2 3 27 5 54 5 l50 1 -3 70 c-1 39 -6 73 -12 77 -5 4 -34 8 -62
8 l-53 0 0 -49 c0 -67 -16 -82 -69 -68 -37 10 -41 15 -52 58 -8 31 -28 64 -56
95 -55 62 -62 83 -33 106 12 10 31 18 41 18 24 0 27 8 31 87 l4 62 -49 6 c-59
8 -82 29 -92 81 -9 51 -20 63 -66 70 -21 4 -43 12 -48 18 -5 6 -10 38 -12 71
l-4 60 64 3 63 3 -4 55 c-5 61 -23 86 -54 78 -24 -6 -64 -71 -64 -102 0 -36
-48 -55 -98 -38 -36 12 -52 -9 -52 -70 l0 -54 -40 0 c-22 0 -40 4 -40 9 0 5
-9 11 -21 14 -17 5 -20 12 -17 54 l3 48 50 9 c28 5 53 14 57 20 13 19 9 123
-4 134 -7 5 -32 13 -55 17 -46 7 -52 12 -58 47 -15 75 -47 99 -108 82 -22 -7
-37 -21 -51 -51 -17 -34 -26 -42 -48 -43 -17 0 -28 5 -28 13 0 7 -10 23 -22
34 -13 11 -31 34 -40 52 -15 28 -22 31 -62 31 -52 0 -76 -8 -76 -24 0 -16 -54
-76 -68 -76 -16 0 -15 17 0 23 7 3 1 6 -13 6 -20 1 -32 11 -53 50 -25 46 -30
50 -74 57 -62 9 -72 18 -72 69 0 60 21 76 85 67 l50 -7 1 -68 c1 -37 3 -69 5
-71 2 -2 32 -7 67 -11 l62 -7 0 44 c0 61 -28 100 -82 113 -45 11 -55 27 -57
92 -2 55 44 78 103 51 25 -11 38 -34 41 -72 3 -30 43 -56 86 -56 47 0 54 12
45 75 -6 37 -12 46 -32 50 -13 3 -34 7 -46 10 -25 5 -48 60 -48 113 l0 29 58
-10 c63 -11 67 -14 76 -66 7 -42 26 -57 90 -66 l46 -7 2 33 c0 19 1 41 0 51
-2 26 25 41 64 35 51 -9 64 -23 64 -73 0 -39 -3 -44 -27 -50 -85 -18 -93 -25
-93 -74 0 -64 6 -70 66 -70 49 0 55 2 64 26 6 14 10 35 10 47 0 32 34 50 80
42 36 -6 38 -9 54 -65 17 -61 26 -68 84 -75 42 -4 49 3 57 60 l6 53 45 4 c56
4 84 -6 84 -30 0 -11 5 -33 11 -51 9 -27 16 -32 38 -29 15 2 26 9 26 18 0 8 7
20 15 26 12 10 12 14 0 29 -7 9 -30 24 -49 33 -34 16 -36 20 -39 69 -3 45 0
53 19 64 13 6 41 12 63 13 l41 1 7 59 c4 33 13 63 20 68 18 11 62 10 94 -2 25
-10 26 -13 21 -61 -8 -68 -19 -79 -78 -79 -47 0 -49 -1 -49 -28 0 -37 26 -89
50 -102 10 -6 32 -10 49 -10 30 0 30 0 33 62 3 69 10 75 73 64 26 -5 34 -12
38 -35 3 -16 3 -41 -2 -57 -6 -23 -15 -31 -49 -39 -23 -6 -46 -15 -51 -20 -5
-6 -7 -34 -4 -62 5 -52 6 -53 45 -64 69 -18 83 -11 86 46 2 28 7 54 12 59 5 5
29 5 53 2 44 -7 46 -9 52 -48 10 -57 36 -80 88 -76 44 3 47 8 62 79 6 33 19
38 69 30 36 -6 40 -9 51 -54 7 -26 14 -49 17 -52 2 -3 25 -11 51 -19 53 -16
61 -11 71 45 9 49 29 66 61 51 29 -13 32 -37 8 -51 -15 -9 -16 -12 -4 -20 19
-12 5 -30 -35 -47 -19 -8 -34 -18 -35 -22 0 -4 -2 -28 -4 -53 -3 -61 -9 -68
-56 -75 -46 -8 -69 -34 -69 -79 0 -43 -16 -55 -71 -55 l-48 0 -6 -47 c-3 -27
-7 -55 -8 -63 -2 -11 -18 -16 -65 -18 l-62 -3 0 69 c0 79 3 82 76 82 l44 0 0
38 c0 49 -10 62 -67 92 -46 25 -48 27 -53 78 -7 63 -21 78 -82 87 l-48 7 0
-66 c0 -62 2 -67 26 -76 14 -6 35 -10 48 -10 43 0 53 -19 47 -85 l-6 -60 -35
3 c-61 5 -77 19 -84 73 -7 54 -24 69 -75 69 -37 0 -51 -22 -51 -80 0 -44 11
-53 82 -65 36 -6 36 -6 45 -68 l8 -62 57 -15 58 -14 11 -59 c13 -63 34 -81 88
-75 23 3 27 9 32 55 10 81 10 81 70 76 63 -4 69 2 69 75 0 34 4 53 13 54 53 6
40 -14 220 328 24 47 79 153 122 235 43 83 97 186 120 230 23 44 91 175 150
290 59 116 111 215 115 220 4 6 45 82 90 170 46 88 129 249 186 357 57 108
104 199 104 202 0 3 -458 6 -1017 6 -697 -1 -1012 -4 -1000 -11 9 -5 17 -18
17 -28 0 -20 -30 -51 -48 -51 -17 0 -25 45 -12 69 11 21 9 21 -92 20 -57 0
-97 -3 -90 -6 18 -7 15 -36 -6 -59 -10 -11 -17 -25 -14 -32 3 -10 -5 -13 -29
-10 -31 3 -34 6 -37 41 -2 21 2 45 9 53 10 12 -40 14 -365 14 -275 0 -376 -3
-376 -11z m7384 -54 c3 -9 -3 -19 -15 -25 -25 -14 -39 -5 -32 20 6 23 38 27
47 5z m-6454 -105 c0 -12 -37 -50 -48 -50 -4 0 -9 14 -10 30 -2 27 0 30 28 30
16 0 30 -4 30 -10z m6724 -110 c-5 -5 -15 -6 -22 -1 -10 6 -10 14 -1 37 l11
29 10 -28 c6 -16 6 -33 2 -37z m-6850 -33 c9 -14 7 -21 -6 -31 -10 -7 -18 -17
-18 -22 0 -5 -11 -10 -25 -10 -22 -2 -25 2 -25 35 0 21 3 41 7 45 13 12 56 2
67 -17z m2616 -284 c0 -11 -69 -57 -76 -51 -3 3 9 17 26 32 31 26 50 33 50 19z
m-224 -140 c-15 -8 -33 -12 -39 -10 -7 2 1 11 18 19 16 9 34 14 39 11 5 -3 -3
-12 -18 -20z m154 -38 c-14 -17 -30 -20 -30 -6 0 5 8 12 18 14 9 3 19 5 21 6
2 0 -2 -6 -9 -14z m60 -29 c0 -2 -9 -6 -20 -9 -11 -3 -18 -1 -14 4 5 9 34 13
34 5z m-145 -43 c-20 -14 -35 -17 -35 -7 0 12 35 32 44 27 5 -4 1 -12 -9 -20z
m302 11 c-3 -3 -12 -4 -19 -1 -8 3 -5 6 6 6 11 1 17 -2 13 -5z m-377 -14 c0
-5 -2 -10 -4 -10 -3 0 -8 5 -11 10 -3 6 -1 10 4 10 6 0 11 -4 11 -10z m10 -49
c0 -6 -4 -13 -10 -16 -5 -3 -10 1 -10 9 0 9 5 16 10 16 6 0 10 -4 10 -9z
m-2710 -5 c0 -3 -4 -8 -10 -11 -5 -3 -10 -1 -10 4 0 6 5 11 10 11 6 0 10 -2
10 -4z m2590 -5 c0 -9 -24 -21 -43 -21 -6 0 -2 7 9 15 22 17 34 19 34 6z m270
-45 c0 -3 -4 -8 -10 -11 -5 -3 -10 -1 -10 4 0 6 5 11 10 11 6 0 10 -2 10 -4z
m-260 -26 c0 -5 -5 -10 -11 -10 -5 0 -7 5 -4 10 3 6 8 10 11 10 2 0 4 -4 4
-10z m-150 -9 c0 -5 -7 -12 -16 -15 -14 -5 -15 -4 -4 9 14 17 20 19 20 6z
m120 -9 c0 -4 -9 -13 -20 -20 -16 -10 -20 -10 -18 0 5 21 38 39 38 20z m-2705
-62 c7 -21 20 -26 29 -11 10 16 46 0 46 -21 0 -38 -19 -58 -56 -58 -21 0 -33
4 -29 10 3 6 2 10 -3 10 -13 0 -24 47 -17 71 8 25 22 24 30 -1z m1135 -70 c16
-8 17 -14 7 -45 -12 -42 -40 -70 -62 -62 -11 5 -15 20 -15 55 0 27 3 52 7 55
9 10 42 8 63 -3z m925 -50 c10 -11 14 -20 8 -20 -5 0 -18 9 -28 20 -10 11 -14
20 -8 20 5 0 18 -9 28 -20z m-2126 -34 c8 -10 9 -25 3 -48 -8 -29 -12 -33 -38
-30 -48 6 -53 39 -10 74 26 21 30 22 45 4z m241 5 c0 -5 8 -8 18 -7 13 1 18
-8 20 -45 3 -45 2 -47 -28 -52 -35 -8 -70 10 -70 34 0 9 3 31 6 48 5 24 12 31
30 31 13 0 24 -4 24 -9z m2420 -71 c0 -5 -9 -10 -21 -10 -11 0 -17 5 -14 10 3
6 13 10 21 10 8 0 14 -4 14 -10z m-1850 -32 c24 -26 22 -42 -7 -46 -26 -4 -44
18 -36 46 7 28 17 28 43 0z m498 -25 c-6 -7 -7 -13 -3 -13 5 0 5 -3 2 -7 -7
-6 -36 25 -37 39 0 11 35 15 42 4 4 -6 2 -16 -4 -23z m-1450 -68 c-3 -23 -44
-33 -61 -16 -8 8 -6 11 6 11 9 0 17 5 17 10 0 6 -7 10 -16 10 -12 0 -11 5 7
20 22 18 25 18 37 2 7 -9 11 -26 10 -37z m1479 33 c-3 -8 -6 -5 -6 6 -1 11 2
17 5 13 3 -3 4 -12 1 -19z m-691 -27 c9 7 18 2 33 -17 25 -31 26 -43 7 -69 -9
-13 -19 -16 -32 -10 -10 4 -27 7 -36 6 -9 -1 -19 7 -23 19 -8 26 16 83 29 70
6 -6 14 -6 22 1z m4034 -58 c0 -19 -3 -24 -10 -17 -6 6 -8 18 -4 27 9 24 14
21 14 -10z m-4966 -69 c9 -35 -9 -54 -30 -32 -13 12 -14 20 -5 37 16 28 27 26
35 -5z m2024 -12 c15 -20 4 -32 -32 -35 -36 -3 -56 24 -37 47 16 19 49 13 69
-12z m2407 8 c-3 -5 -18 -10 -33 -10 -21 0 -24 2 -12 10 20 13 53 13 45 0z
m1035 0 c0 -5 -5 -10 -11 -10 -5 0 -7 5 -4 10 3 6 8 10 11 10 2 0 4 -4 4 -10z
m-650 -47 c0 -15 7 -23 23 -25 23 -4 24 -8 12 -45 -5 -19 -2 -23 14 -23 33 0
60 -44 55 -93 -3 -33 -2 -38 6 -22 7 16 8 12 4 -16 -3 -20 0 -55 6 -79 9 -34
9 -44 -1 -51 -11 -6 -9 -13 8 -31 12 -13 29 -41 38 -63 21 -51 46 -197 35
-209 -10 -10 -1 -117 11 -131 14 -14 10 -43 -6 -53 -9 -4 -17 -24 -19 -43 -2
-18 -6 -46 -11 -61 -6 -25 -8 -26 -23 -11 -15 15 -17 14 -29 -13 -7 -16 -13
-40 -14 -54 -1 -20 -3 -18 -11 13 -9 35 -11 36 -24 20 -13 -17 -13 -17 -14 0
0 10 7 20 15 23 8 4 15 11 15 18 0 13 -42 52 -50 47 -3 -2 -10 6 -16 18 l-12
23 -16 -23 c-9 -13 -16 -31 -16 -41 0 -10 -5 -18 -11 -18 -6 0 -9 -6 -6 -12 2
-7 9 -12 14 -11 5 1 10 -5 10 -13 0 -8 -2 -14 -4 -14 -9 0 -33 29 -33 40 0 6
-6 10 -12 7 -7 -2 -12 -14 -10 -27 1 -16 -2 -21 -13 -16 -8 3 -15 1 -15 -4 0
-5 -6 -7 -14 -4 -8 3 -17 0 -22 -7 -4 -8 -3 -10 4 -5 8 5 10 2 6 -8 -3 -9 -10
-13 -15 -10 -6 3 -16 1 -23 -5 -9 -8 -18 -7 -31 3 -18 13 -18 16 13 79 18 35
32 71 32 78 0 8 7 27 15 42 14 26 13 29 -3 34 -9 2 -24 21 -33 42 -13 30 -25
41 -55 51 -22 7 -49 21 -62 31 -13 10 -49 25 -80 34 -31 10 -70 24 -85 32 -27
14 -28 15 -12 33 9 10 46 26 83 35 139 36 172 47 168 54 -3 4 15 19 39 35 24
15 53 42 64 59 24 40 41 136 41 240 0 70 3 81 25 103 18 17 25 36 25 62 0 28
3 33 10 22 5 -8 10 -25 10 -37z m47 20 c-3 -3 -11 -2 -17 2 -9 6 -9 10 1 16
14 8 27 -7 16 -18z m556 20 c-7 -2 -19 -2 -25 0 -7 3 -2 5 12 5 14 0 19 -2 13
-5z m-1056 -9 c-3 -3 -12 -4 -19 -1 -8 3 -5 6 6 6 11 1 17 -2 13 -5z m283 -37
c37 -18 61 -95 62 -197 2 -160 -36 -222 -159 -260 -79 -24 -282 -46 -335 -36
-71 13 -130 84 -186 218 -39 94 -41 140 -8 172 24 25 131 64 142 53 3 -3 -11
-21 -32 -39 -74 -64 -72 -61 -63 -117 12 -80 28 -102 93 -135 69 -34 171 -46
232 -26 68 21 174 72 168 81 -3 5 2 9 10 9 8 0 17 4 21 9 6 11 -41 -1 -73 -18
-30 -16 -165 -26 -187 -14 -14 8 -6 12 36 17 80 11 98 16 93 31 -8 20 33 25
141 18 99 -6 100 -6 78 13 -15 14 -20 28 -17 49 l4 30 -13 -27 c-11 -24 -14
-25 -37 -12 -52 29 -178 62 -262 69 -50 4 -92 13 -98 20 -16 19 -2 42 29 48
16 3 36 14 45 23 10 9 32 20 49 24 54 13 240 11 267 -3z m384 -29 c-8 -28 -12
-33 -20 -25 -4 4 -2 13 4 20 7 8 9 17 5 20 -3 4 -1 7 6 7 8 0 10 -8 5 -22z
m101 -38 c8 0 15 -4 15 -9 0 -5 9 -7 19 -4 16 4 19 1 14 -16 -6 -25 -30 -27
-60 -6 -12 9 -26 15 -30 14 -22 -4 -32 2 -27 16 4 9 0 15 -7 15 -11 0 -11 2 1
10 10 6 22 4 37 -5 12 -8 29 -15 38 -15z m-150 10 c3 -5 17 -10 30 -10 13 0
28 -6 32 -14 4 -7 18 -18 31 -25 25 -13 29 -31 7 -31 -21 0 -19 -16 5 -40 12
-12 15 -20 7 -20 -22 0 -59 32 -53 46 3 8 1 14 -4 14 -10 0 -80 71 -80 83 0
10 18 9 25 -3z m15 -73 c0 -6 -9 -2 -20 8 -11 10 -20 23 -20 28 0 6 9 2 20 -8
11 -10 20 -23 20 -28z m1569 3 c57 -5 185 -17 285 -25 100 -8 206 -18 236 -20
30 -3 128 -12 217 -19 167 -15 183 -18 183 -40 0 -10 -178 -420 -270 -621 -40
-88 -86 -189 -172 -385 -50 -113 -96 -209 -102 -213 -10 -7 -144 -4 -366 8
-41 2 -203 9 -360 15 -157 6 -303 13 -325 15 -22 2 -66 4 -98 4 -42 1 -59 5
-63 16 -6 15 63 170 214 485 70 146 162 347 162 354 0 8 203 422 213 435 9 10
28 12 77 7 36 -3 112 -10 169 -16z m-1604 -30 c9 -16 11 -30 6 -30 -5 0 -14
14 -20 30 -5 17 -8 30 -6 30 3 0 11 -13 20 -30z m-1447 -16 c16 -12 15 -13 -5
-21 -21 -8 -23 -11 -23 -32 0 -5 -24 -15 -54 -21 -57 -12 -61 -12 -138 -10
-52 2 -73 14 -30 18 15 1 33 10 39 19 7 9 30 27 50 39 43 25 131 30 161 8z
m-3512 -19 c3 -8 7 -36 7 -62 l2 -48 -60 0 -60 0 -3 48 c-2 27 2 55 9 63 16
19 98 19 105 -1z m4994 -15 c0 -5 -4 -10 -10 -10 -5 0 -10 5 -10 10 0 6 5 10
10 10 6 0 10 -4 10 -10z m-1055 -10 c4 -6 -6 -10 -22 -10 -15 0 -35 -5 -43
-11 -12 -8 -9 -9 12 -5 50 11 74 -8 132 -106 30 -51 73 -110 95 -131 23 -21
41 -44 41 -52 0 -8 11 -22 24 -30 29 -19 50 -67 43 -95 -5 -20 7 -28 17 -12
10 17 63 5 98 -21 43 -33 63 -69 53 -94 -18 -40 -21 -77 -10 -110 6 -18 2 -22
-23 -28 -17 -3 -46 -7 -64 -7 -18 -1 -42 -7 -53 -14 -33 -23 -40 -16 -42 39
-2 43 -1 48 8 27 5 -13 11 -26 13 -27 7 -8 56 17 56 28 0 7 -3 10 -6 6 -8 -7
-59 43 -67 67 -5 12 -14 17 -28 13 -11 -3 -34 0 -51 8 l-32 13 35 17 c38 20
79 54 79 67 0 5 -28 8 -62 7 -35 -2 -71 2 -82 8 -12 7 -32 7 -60 1 -22 -5 -57
-7 -76 -4 -86 15 -109 14 -115 -3 -7 -22 -57 -51 -89 -51 -39 0 -36 49 7 97
37 42 59 86 32 63 -8 -7 -15 -9 -15 -5 0 4 -13 -4 -29 -17 -16 -12 -43 -34
-61 -48 -42 -32 -123 -101 -130 -109 -13 -17 -98 -81 -108 -81 -6 0 -15 -7
-19 -15 -5 -9 -28 -17 -52 -20 -24 -2 -51 -11 -60 -19 -10 -9 -37 -17 -61 -18
-44 -1 -98 -37 -86 -57 4 -5 1 -13 -5 -17 -6 -3 -15 0 -20 7 -7 11 -11 10 -23
-6 -9 -11 -16 -29 -17 -40 -1 -17 -2 -16 -8 4 -4 14 -1 55 5 93 10 56 9 76 -3
111 -10 29 -15 95 -17 217 -1 96 -6 183 -10 192 -4 9 -6 25 -4 35 2 10 19 -23
37 -74 45 -119 83 -171 153 -206 l55 -27 153 15 c271 28 301 53 387 334 7 25
13 55 13 67 0 13 8 28 18 33 22 13 79 14 87 1z m1196 -7 c12 -15 12 -16 -5
-10 -12 5 -23 3 -28 -5 -6 -10 -8 -9 -8 3 0 32 20 38 41 12z m-153 -78 l1 -20
-9 20 c-5 11 -8 31 -8 45 l0 25 8 -25 c4 -14 8 -34 8 -45z m99 23 c-3 -7 -5
-2 -5 12 0 14 2 19 5 13 2 -7 2 -19 0 -25z m43 22 c0 -5 -5 -10 -11 -10 -5 0
-7 5 -4 10 3 6 8 10 11 10 2 0 4 -4 4 -10z m60 -26 c0 -8 -4 -12 -10 -9 -5 3
-10 10 -10 16 0 5 5 9 10 9 6 0 10 -7 10 -16z m10 -90 c0 -18 -9 -18 -51 3
-42 21 -57 35 -52 50 6 16 103 -34 103 -53z m50 46 c13 -8 13 -10 -2 -10 -9 0
-20 5 -23 10 -8 13 5 13 25 0z m-5380 -48 c0 -48 0 -49 -40 -61 -51 -15 -60
-9 -50 34 12 54 22 63 83 74 4 0 7 -21 7 -47z m3259 -42 c-1 -21 -27 51 -28
75 0 11 6 2 14 -20 8 -22 14 -47 14 -55z m-2469 13 c0 9 4 17 9 17 15 0 22
-32 10 -46 -16 -19 -49 0 -49 29 1 21 1 22 15 3 13 -17 15 -18 15 -3z m3074
-54 c-22 -59 -66 -103 -121 -119 -80 -22 -238 -42 -310 -38 -73 3 -77 5 -108
41 -34 39 -72 124 -61 135 9 8 26 -19 20 -30 -3 -5 -2 -7 3 -6 4 1 33 -4 63
-11 31 -8 114 -14 195 -15 l140 -1 74 37 c40 20 79 34 86 31 7 -2 16 5 20 17
4 12 9 19 12 16 3 -3 -3 -28 -13 -57z m-3594 32 c0 -10 -9 -21 -20 -24 -24 -6
-26 6 -4 27 20 21 24 20 24 -3z m2489 -68 c-7 -12 -16 -23 -21 -23 -10 0 -5
25 15 75 l12 30 3 -29 c2 -16 -2 -40 -9 -53z m2501 47 c22 -21 27 -30 16 -30
-14 0 -14 -3 -4 -19 15 -25 -7 -172 -27 -183 -7 -5 -11 -17 -8 -28 3 -13 0
-20 -8 -20 -11 0 -11 -2 1 -10 8 -5 11 -12 7 -17 -11 -10 -26 17 -20 34 3 7 0
20 -7 28 -10 11 -9 18 5 31 9 10 13 23 9 33 -9 22 -6 74 6 81 10 6 9 68 -1 85
-13 23 -18 45 -10 45 5 0 23 -13 41 -30z m50 21 c0 -6 -4 -13 -10 -16 -5 -3
-10 1 -10 9 0 9 5 16 10 16 6 0 10 -4 10 -9z m43 -8 c-7 -2 -19 -2 -25 0 -7 3
-2 5 12 5 14 0 19 -2 13 -5z m-2190 -138 c0 -11 -1 -38 -2 -60 -4 -39 -4 -39
-11 15 -5 30 -8 84 -8 120 l1 65 9 -60 c5 -33 10 -69 11 -80z m-393 15 c0 -28
-5 -43 -16 -47 -15 -6 -15 -8 2 -21 18 -13 18 -14 -1 -10 -16 3 -20 11 -20 48
-1 44 9 70 26 70 5 0 9 -18 9 -40z m1730 30 c-36 -11 -50 -11 -50 0 0 6 17 10
38 9 33 -1 34 -2 12 -9z m-1770 -40 c0 -5 -5 -10 -11 -10 -5 0 -7 5 -4 10 3 6
8 10 11 10 2 0 4 -4 4 -10z m-1880 -180 l0 -60 -55 0 -55 0 0 48 c0 59 12 72
67 72 l43 0 0 -60z m190 45 c0 -8 -7 -15 -15 -15 -8 0 -15 7 -15 15 0 8 7 15
15 15 8 0 15 -7 15 -15z m4170 -80 c0 -5 -5 -3 -10 5 -5 8 -10 20 -10 25 0 6
5 3 10 -5 5 -8 10 -19 10 -25z m-1410 -19 c0 -8 -5 -18 -12 -22 -7 -4 -8 -3
-4 4 4 7 2 12 -3 12 -6 0 -11 5 -11 10 0 6 7 10 15 10 8 0 15 -6 15 -14z m65
-25 c-6 -5 -25 10 -25 20 0 5 6 4 14 -3 8 -7 12 -15 11 -17z m-30 -9 c-3 -3
-11 0 -18 7 -9 10 -8 11 6 5 10 -3 15 -9 12 -12z m-3129 -28 c8 -33 -7 -48
-40 -40 -30 8 -33 19 -8 45 24 27 41 25 48 -5z m247 18 c6 -9 -28 -82 -47
-101 -30 -29 -44 8 -30 78 6 27 11 31 40 31 18 0 35 -3 37 -8z m4247 4 c0 -3
-4 -8 -10 -11 -5 -3 -10 -1 -10 4 0 6 5 11 10 11 6 0 10 -2 10 -4z m-886 -86
c-7 -33 -14 -36 -106 -46 -60 -6 -68 -4 -68 10 0 13 -8 17 -27 15 -61 -5 -133
2 -133 12 0 5 16 17 36 25 37 15 80 21 209 28 45 3 71 9 74 17 8 24 21 -30 15
-61z m956 -9 c-13 -32 -40 -50 -40 -26 0 8 5 15 10 15 6 0 10 6 10 13 0 15 21
39 28 32 3 -2 -1 -18 -8 -34z m-90 9 c0 -5 -4 -10 -10 -10 -5 0 -10 5 -10 10
0 6 5 10 10 10 6 0 10 -4 10 -10z m-3930 -20 c0 -5 -5 -10 -11 -10 -5 0 -7 5
-4 10 3 6 8 10 11 10 2 0 4 -4 4 -10z m-397 -53 c3 -8 -4 -28 -15 -46 l-21
-32 -18 28 c-26 38 -24 51 9 56 15 2 30 5 33 6 4 0 9 -5 12 -12z m3546 -11 c7
-8 20 -15 29 -15 9 0 42 -2 72 -4 33 -3 60 -1 68 6 33 27 112 -4 112 -45 0
-10 4 -18 10 -18 5 0 9 -33 7 -80 -2 -76 -3 -80 -29 -91 -23 -9 -26 -15 -18
-29 14 -26 13 -30 -7 -23 -13 5 -15 2 -11 -15 5 -16 2 -22 -10 -23 -15 0 -15
-1 0 -7 16 -6 16 -10 4 -33 -7 -15 -10 -32 -6 -38 10 -18 0 -61 -15 -61 -7 0
-16 8 -20 18 -6 15 -9 13 -21 -10 -14 -28 -34 -38 -34 -18 0 6 -4 10 -9 10 -5
0 -7 -10 -3 -22 3 -13 1 -19 -5 -15 -14 9 -37 -19 -28 -33 3 -5 -5 -15 -19
-22 -15 -6 -27 -20 -27 -32 -2 -20 -2 -19 -6 2 -5 23 -18 29 -28 12 -3 -5 -15
-10 -26 -10 -10 0 -19 -6 -20 -12 0 -10 -2 -10 -6 -1 -3 10 -8 9 -20 -2 -8 -8
-19 -15 -26 -15 -6 0 4 13 21 28 32 29 41 52 21 52 -5 0 -7 -4 -4 -10 3 -5 -1
-10 -9 -10 -9 0 -17 8 -17 18 -1 16 -2 16 -6 0 -5 -20 -5 -20 -27 -12 -9 3
-16 13 -16 20 0 12 -3 12 -14 2 -8 -8 -11 -17 -6 -22 6 -6 3 -14 -7 -21 -20
-15 -82 1 -100 26 -13 18 -29 19 -51 5 -20 -12 -65 2 -59 18 5 11 -1 12 -31 4
-20 -6 -42 -14 -49 -20 -12 -9 -53 9 -53 24 0 5 -9 8 -19 8 -19 0 -35 25 -26
40 3 4 -4 6 -15 3 -18 -5 -20 -1 -18 34 2 52 -15 80 -54 88 -41 9 -58 22 -51
40 3 8 -2 21 -10 29 -10 11 -14 28 -10 53 2 21 5 43 5 49 1 6 10 9 21 6 16 -4
19 -1 14 11 -9 24 -2 22 57 -18 29 -19 69 -41 88 -50 42 -17 58 -35 31 -35
-10 0 -24 -9 -31 -20 -11 -18 -8 -22 28 -40 21 -11 46 -20 53 -20 8 0 20 -7
27 -15 7 -8 27 -15 45 -15 45 0 65 -9 65 -28 0 -14 1 -14 13 1 6 9 38 23 70
31 31 8 63 18 70 23 12 7 17 9 50 11 12 2 17 11 17 36 0 19 5 38 10 41 8 5 7
11 -1 21 -10 12 -8 18 7 30 17 13 7 15 -106 11 -179 -6 -310 22 -307 64 1 10
5 15 9 13 4 -3 8 1 8 8 0 10 3 9 9 -1 8 -12 12 -12 25 -2 15 12 15 15 -1 27
-10 7 -35 14 -55 14 -21 0 -38 5 -38 11 0 7 9 9 22 6 12 -3 30 -1 40 4 27 14
57 2 64 -27 5 -18 13 -24 33 -24 24 1 24 2 9 14 -36 27 -18 43 58 50 21 2 58
9 82 15 23 7 47 9 52 6 5 -3 21 2 35 11 20 13 31 15 50 6 18 -8 26 -8 35 4 16
18 24 18 39 0z m-910 -10 c6 -7 17 -32 26 -55 13 -38 13 -44 -1 -58 -22 -23
-65 -6 -77 30 -13 41 -1 92 22 94 11 1 24 -4 30 -11z m1611 10 c0 -3 -4 -8
-10 -11 -5 -3 -10 -1 -10 4 0 6 5 11 10 11 6 0 10 -2 10 -4z m-2080 -65 c-5
-11 -15 -23 -20 -26 -14 -9 -12 19 2 33 19 19 30 14 18 -7z m38 -22 c-22 -12
-23 -29 -3 -29 8 0 15 -8 15 -19 0 -10 -7 -24 -15 -31 -8 -7 -15 -18 -16 -24
0 -6 -19 -26 -41 -44 -33 -26 -49 -32 -77 -30 l-36 3 4 45 c3 47 17 74 32 64
5 -3 9 0 9 6 0 8 9 10 24 6 20 -5 31 2 63 38 25 29 41 41 48 35 7 -7 4 -14 -7
-20z m20 -147 c-5 -21 -16 -46 -24 -56 -14 -20 -14 -19 -34 1 l-20 22 29 24
c16 13 32 34 36 47 12 37 24 3 13 -38z m-307 12 c9 -3 15 -18 16 -40 1 -19 -3
-31 -8 -28 -5 3 -9 13 -9 22 0 13 -4 12 -19 -7 l-19 -25 5 27 c3 15 0 33 -6
40 -12 15 -3 30 13 22 6 -3 18 -8 27 -11z m1526 -96 c-3 -8 -6 -5 -6 6 -1 11
2 17 5 13 3 -3 4 -12 1 -19z m-1683 -51 c-5 -8 -3 -8 7 1 7 6 22 12 34 11 11
0 15 -3 8 -5 -7 -3 -9 -12 -6 -20 3 -8 0 -14 -6 -14 -6 0 -11 -9 -11 -20 0
-23 -13 -26 -29 -6 -13 15 -12 78 1 70 5 -3 5 -11 2 -17z m324 -39 c10 -10 68
-13 117 -6 14 2 24 -7 36 -33 19 -38 49 -72 123 -136 51 -46 62 -50 68 -31 3
9 12 8 31 -5 21 -13 26 -23 21 -41 -4 -18 5 -32 46 -69 50 -45 93 -62 88 -35
-2 7 4 13 12 13 11 0 16 -15 18 -63 3 -51 -1 -72 -22 -115 -24 -48 -25 -57
-16 -113 14 -86 24 -110 144 -358 58 -120 106 -220 106 -222 0 -2 27 -63 59
-136 33 -73 105 -236 161 -363 183 -412 227 -509 258 -575 17 -36 44 -99 61
-140 27 -69 32 -75 63 -80 30 -5 33 -9 36 -42 3 -32 0 -38 -17 -38 -19 0 -19
-1 -1 -52 30 -85 68 -242 85 -346 36 -224 40 -252 51 -382 4 -41 13 -92 20
-114 8 -21 14 -55 14 -75 0 -35 2 -33 43 44 24 44 93 154 154 245 102 152 173
270 250 410 17 30 58 105 92 165 59 104 77 143 157 330 39 90 42 106 13 55
-11 -19 -18 -27 -15 -18 3 10 1 20 -5 24 -6 3 -8 18 -6 32 2 15 2 21 0 14 -3
-7 -12 -12 -21 -10 -22 5 -19 58 5 75 9 7 12 13 6 13 -7 0 -18 -7 -26 -15 -8
-8 -18 -11 -23 -7 -5 4 -2 -2 6 -12 14 -18 13 -19 -3 -13 -10 4 -23 7 -28 7
-5 0 1 18 12 40 20 38 22 39 44 24 20 -13 23 -13 29 2 3 8 3 21 -1 26 -3 7 -1
8 5 4 7 -4 12 -1 12 8 0 9 4 16 9 16 14 0 21 43 9 57 -8 10 -7 12 4 8 9 -4 19
4 27 21 6 15 10 29 7 31 -2 2 -7 -5 -11 -16 -6 -21 -35 -30 -35 -10 0 5 5 7
11 4 6 -4 13 2 16 14 3 12 10 21 16 21 6 0 8 3 4 6 -3 4 0 19 8 34 8 15 11 30
8 34 -4 3 -1 6 5 6 7 0 12 7 12 15 0 9 12 43 26 76 14 34 23 63 21 65 -2 3
-10 -10 -17 -28 -7 -18 -46 -89 -85 -158 -39 -69 -89 -156 -109 -195 -21 -38
-51 -90 -66 -115 -15 -25 -75 -137 -134 -250 -91 -177 -156 -299 -199 -375 -6
-11 -10 -23 -9 -27 1 -5 -18 -54 -43 -110 -25 -56 -45 -107 -45 -113 0 -12
-68 -174 -80 -190 -15 -20 -40 -110 -40 -142 0 -18 -5 -33 -11 -33 -6 0 -8 8
-6 18 16 55 17 112 4 134 -23 37 -29 93 -14 130 17 40 35 56 84 73 35 12 40
19 76 107 49 121 137 302 149 306 5 3 5 9 -1 16 -5 6 -11 34 -13 61 l-3 50
-47 -3 c-44 -3 -47 -2 -53 27 -4 17 -4 35 0 41 3 5 36 10 73 10 106 0 140 9
155 39 67 132 204 391 265 500 l75 133 -21 87 c-35 140 -59 315 -71 501 -6 96
-15 200 -18 230 l-7 55 -5 -39 c-5 -34 -14 -45 -61 -77 -119 -83 -292 -127
-533 -136 -182 -7 -260 2 -527 58 -210 43 -291 68 -298 88 -3 10 0 12 12 8 10
-4 15 -3 11 3 -3 6 -14 10 -23 11 -9 0 -12 3 -5 5 17 8 -20 65 -56 87 -30 18
-75 90 -63 103 4 4 1 4 -7 -1 -11 -6 -13 -2 -9 18 3 15 2 25 -1 23 -3 -2 -6
30 -7 72 0 77 -1 84 -22 135 -15 34 -15 47 -2 27 9 -13 11 -13 20 0 8 12 13
13 29 3 16 -10 23 -10 35 2 17 17 32 3 34 -33 1 -32 21 -54 42 -47 13 4 25 -4
40 -25 12 -16 25 -30 30 -30 11 0 88 -36 123 -58 16 -9 36 -30 45 -47 22 -38
55 -71 93 -91 16 -8 34 -26 39 -39 5 -14 17 -25 25 -25 11 0 15 -7 13 -22 -2
-19 1 -22 22 -20 14 2 32 9 40 16 17 14 29 14 48 2 7 -4 18 -3 25 3 9 7 21 6
41 -5 37 -18 130 -9 122 12 -3 8 0 14 5 14 16 0 83 79 91 106 4 14 2 27 -5 31
-7 5 -18 16 -26 25 -11 15 -10 22 13 49 14 17 26 34 26 39 0 4 22 16 49 26 49
17 78 54 43 54 -13 0 -14 2 -4 9 8 4 13 11 13 15 -3 20 2 27 32 48 17 13 33
29 35 37 2 8 10 20 19 26 9 7 17 23 18 36 1 16 9 25 23 27 12 2 22 10 22 18 0
8 6 14 13 15 17 0 54 50 63 83 6 26 5 27 -14 17 -19 -10 -21 -9 -15 6 8 22 35
43 46 36 4 -2 4 -9 1 -15 -4 -7 -2 -8 4 -4 7 4 12 14 12 22 0 8 6 14 14 14 19
0 72 63 57 68 -6 2 -11 10 -11 18 0 7 6 11 14 8 9 -4 18 7 26 31 12 37 55 95
71 95 5 0 9 -15 9 -32 l0 -33 158 -2 c288 -3 460 -14 466 -29 3 -7 -22 -71
-56 -141 -79 -167 -134 -284 -196 -413 -27 -58 -59 -126 -71 -152 -12 -27 -28
-48 -36 -48 -8 0 -26 12 -41 28 -31 32 -30 28 13 -54 36 -69 73 -178 103 -304
27 -113 26 -247 -1 -370 -11 -52 -25 -135 -30 -183 -5 -48 -16 -120 -24 -160
-9 -40 -23 -121 -31 -180 -16 -119 -41 -198 -110 -355 l-46 -103 17 -72 c10
-40 21 -81 26 -92 7 -17 8 -18 10 -2 1 9 2 20 4 25 1 4 5 49 10 100 l8 92 33
0 c37 0 47 -13 63 -76 5 -22 18 -70 29 -109 l18 -70 12 113 c6 62 14 118 18
123 6 10 63 3 75 -10 7 -6 2 -52 -29 -291 l-17 -135 -38 -3 c-43 -4 -43 -4
-78 136 -23 93 -39 118 -39 60 0 -18 -5 -68 -12 -110 -9 -58 -16 -78 -28 -78
-8 0 -25 -3 -37 -6 -24 -7 -28 3 -74 184 -23 91 -33 108 -46 75 -6 -16 -117
-213 -142 -253 -6 -8 -22 -37 -37 -65 -33 -63 -186 -299 -196 -303 -15 -7 -8
-24 22 -58 53 -60 53 -153 -1 -198 -39 -33 -85 -41 -137 -23 -43 15 -43 15
-53 -10 -11 -30 -11 -192 1 -253 4 -25 5 -49 2 -55 -4 -5 -10 6 -13 25 -4 28
-7 31 -14 17 -10 -24 14 -72 29 -57 17 17 25 11 32 -25 7 -40 -11 -95 -32 -95
-8 0 -15 6 -15 13 -1 6 -5 -10 -9 -38 -8 -58 -3 -73 15 -48 13 17 15 17 35 -3
16 -16 22 -35 24 -90 2 -38 1 -49 -1 -24 -2 25 -11 52 -19 61 -22 25 -65 30
-96 11 -25 -15 -28 -22 -28 -69 0 -29 -4 -53 -8 -53 -4 0 -6 30 -4 67 3 60 7
71 33 94 22 19 29 34 29 62 0 20 -4 39 -10 42 -15 9 -13 75 3 70 13 -6 13 -5
15 223 2 143 4 135 -118 412 -44 102 -95 218 -112 258 -27 64 -34 72 -58 72
-24 0 -28 5 -34 37 -3 21 -6 54 -6 74 0 48 -63 201 -247 604 -194 424 -251
552 -396 895 -163 382 -184 446 -174 531 4 30 2 47 -3 44 -6 -4 -10 -14 -11
-23 0 -11 -3 -12 -6 -4 -2 6 7 26 21 43 28 33 34 59 14 59 -28 0 -86 -27 -123
-56 -22 -17 -56 -37 -75 -44 -19 -8 -80 -37 -135 -66 -55 -29 -145 -71 -200
-94 -55 -23 -152 -67 -215 -97 -63 -30 -164 -75 -225 -100 -60 -24 -147 -62
-193 -85 -46 -22 -85 -38 -88 -36 -2 3 4 16 14 29 29 37 167 301 343 659 88
179 169 343 181 365 12 22 45 85 73 140 33 64 60 104 76 112 31 16 131 17 147
1z m2237 -18 c3 -5 -1 -10 -10 -10 -9 0 -13 5 -10 10 3 6 8 10 10 10 2 0 7 -4
10 -10z m-2864 -50 c13 -7 19 -21 19 -43 0 -60 -10 -77 -42 -77 -50 0 -68 16
-68 60 0 21 3 45 6 54 7 18 55 21 85 6z m249 -60 c0 -25 -4 -30 -25 -30 -30 0
-34 26 -7 46 26 20 32 17 32 -16z m4005 -5 c307 -12 454 -21 463 -29 10 -9 7
-22 -12 -61 -42 -86 -126 -271 -126 -277 0 -4 -31 -72 -70 -153 -38 -81 -70
-148 -70 -150 0 -1 -31 -69 -70 -149 -38 -81 -70 -149 -70 -151 0 -2 -11 -28
-24 -57 -13 -29 -38 -87 -55 -129 -51 -123 -43 -119 -147 -69 -49 23 -165 67
-259 97 -93 30 -195 65 -225 77 -30 13 -101 42 -156 65 -100 41 -306 150 -332
175 -11 10 -3 33 42 123 59 119 163 341 272 583 65 144 51 136 234 129 85 -3
358 -14 605 -24z m-2026 -17 l-1 -43 -8 35 c-8 32 -6 50 6 50 2 0 4 -19 3 -42z
m-574 -8 c-18 -20 -18 -21 1 -14 16 7 17 5 7 -8 -7 -8 -10 -18 -6 -21 3 -4 3
-7 0 -7 -3 0 -11 9 -17 21 -12 21 1 49 23 49 5 0 2 -9 -8 -20z m170 0 c3 -5 1
-10 -4 -10 -6 0 -11 5 -11 10 0 6 2 10 4 10 3 0 8 -4 11 -10z m170 -18 c-3 -3
-11 0 -18 7 -9 10 -8 11 6 5 10 -3 15 -9 12 -12z m615 1 c-1 -14 -27 -43 -39
-43 -7 0 -6 9 5 25 16 24 34 34 34 18z m-1655 -13 c3 -5 1 -10 -4 -10 -6 0
-11 5 -11 10 0 6 2 10 4 10 3 0 8 -4 11 -10z m144 -98 c11 -16 21 -20 39 -15
18 4 23 2 20 -8 -13 -36 -109 26 -108 69 1 18 13 6 49 -46z m864 23 c-3 -9 -8
-14 -10 -11 -3 3 -2 9 2 15 9 16 15 13 8 -4z m3000 -127 c3 -7 38 -89 77 -183
40 -93 101 -241 135 -327 35 -87 70 -172 79 -190 70 -158 143 -324 163 -378
13 -35 28 -69 32 -75 19 -23 43 -119 38 -149 -5 -28 -56 -144 -178 -404 -21
-45 -39 -87 -39 -93 0 -5 -7 -20 -15 -32 -8 -13 -24 -49 -35 -81 -11 -32 -28
-77 -39 -100 -47 -98 -91 -205 -107 -258 -10 -32 -21 -58 -25 -58 -4 0 -33 62
-64 138 -47 111 -211 460 -269 572 -66 127 -204 333 -271 404 -50 52 -54 60
-41 75 18 20 164 315 199 401 25 62 61 145 112 255 69 151 85 185 110 240 15
33 36 83 47 110 41 105 63 145 78 145 4 0 10 -6 13 -12z m-2645 -73 c-3 -3 -9
2 -12 12 -6 14 -5 15 5 6 7 -7 10 -15 7 -18z m-1119 -99 c-2 -25 -6 -43 -11
-40 -9 6 -11 46 -2 68 11 28 15 18 13 -28z m191 -56 c0 -5 -7 -7 -15 -4 -8 4
-15 8 -15 10 0 2 7 4 15 4 8 0 15 -4 15 -10z m-1835 -830 c-3 -5 -12 -10 -18
-10 -7 0 -6 4 3 10 19 12 23 12 15 0z m-118 -105 c-37 -35 -47 -31 -12 5 16
16 31 27 34 25 3 -3 -7 -17 -22 -30z m-104 -130 c-3 -9 -8 -14 -10 -11 -3 3
-2 9 2 15 9 16 15 13 8 -4z m1392 -468 c4 -23 9 -45 11 -48 2 -3 29 18 61 48
32 29 62 53 66 53 5 0 -12 -29 -37 -64 l-46 -64 83 5 c97 6 95 -6 -5 -32 -38
-10 -68 -21 -68 -24 0 -4 12 -14 28 -23 33 -20 77 -66 70 -73 -3 -3 -34 8 -69
24 -35 16 -67 27 -71 24 -5 -2 -8 -33 -8 -69 0 -35 -4 -64 -9 -64 -6 0 -15 27
-22 60 -6 33 -14 60 -16 60 -2 0 -31 -18 -64 -41 -33 -22 -63 -38 -66 -35 -6
6 46 74 73 97 15 12 6 15 -72 19 l-89 5 60 18 c33 10 71 22 84 26 23 7 22 9
-30 46 -41 31 -49 41 -35 43 19 4 52 -10 98 -40 l27 -18 7 71 c6 62 9 70 20
55 7 -10 16 -37 19 -59z m2132 -163 c22 -39 22 -44 8 -78 -13 -31 -20 -36 -48
-36 -39 0 -58 13 -83 57 -17 31 -17 34 -1 68 16 34 20 36 59 33 38 -3 45 -7
65 -44z m-31 -150 c-3 -9 -6 -20 -6 -25 0 -18 -15 -9 -27 16 -10 23 -9 25 14
25 19 0 24 -4 19 -16z m-528 -67 c28 -30 52 -83 52 -114 0 -10 -11 -13 -41
-11 -37 3 -43 7 -53 37 -15 46 -40 61 -63 38 -15 -15 -18 -34 -15 -132 3 -140
16 -189 53 -193 21 -2 28 3 37 25 6 15 12 39 14 53 3 22 8 25 43 25 l40 0 -1
-40 c-1 -53 -30 -113 -65 -130 -37 -20 -109 -19 -137 1 -49 34 -82 154 -82
299 0 103 33 160 102 174 52 11 84 2 116 -32z m-589 -16 c26 -48 69 -240 86
-383 l7 -58 -35 0 c-29 0 -39 6 -54 33 -82 139 -117 196 -120 193 -2 -1 4 -53
13 -115 9 -61 15 -113 13 -115 -2 -2 -21 -6 -41 -9 -43 -7 -42 -9 -58 111 -14
102 -28 198 -38 260 -9 52 -8 54 16 63 41 16 54 8 107 -66 27 -39 58 -82 68
-95 17 -25 17 -24 11 40 -3 36 -10 83 -14 104 -5 22 -7 44 -4 48 9 14 33 8 43
-11z m1533 10 c21 -8 25 -20 46 -182 13 -96 26 -191 29 -212 l5 -38 -44 3
c-41 3 -43 4 -46 38 -1 19 -9 89 -17 155 -28 242 -28 245 -12 245 9 0 26 -4
39 -9z m269 -32 c25 -6 39 -16 43 -32 12 -44 8 -48 -35 -41 l-41 7 6 -44 c3
-24 13 -92 21 -150 20 -141 20 -173 -1 -165 -9 3 -26 6 -39 6 -21 0 -23 6 -30
73 -4 39 -9 81 -11 92 -2 11 -9 59 -16 107 l-11 87 -49 6 c-47 7 -48 8 -48 42
l0 35 88 -7 c48 -3 103 -11 123 -16z m-2067 -220 c31 -229 32 -229 -26 -229
-23 0 -36 15 -94 105 -37 58 -68 104 -70 103 -1 -2 2 -43 8 -93 17 -140 19
-130 -29 -133 l-42 -3 -6 48 c-3 26 -10 82 -15 123 -5 41 -14 114 -21 162 -6
48 -8 92 -4 97 3 6 21 11 39 11 32 0 37 -6 101 -110 38 -60 70 -108 73 -106 2
3 -1 28 -7 58 -5 29 -13 78 -17 110 -7 61 -4 64 56 67 l26 1 28 -211z m2200
179 c2 -2 8 -39 14 -82 7 -44 14 -81 15 -83 2 -1 18 -6 37 -9 l33 -7 -6 44
c-4 24 -10 61 -13 82 -6 34 -5 37 18 37 46 0 54 -18 72 -150 9 -69 21 -152 26
-186 16 -99 15 -107 -17 -99 -16 4 -29 8 -31 10 -2 2 -10 43 -19 92 -8 48 -18
91 -21 94 -4 4 -20 9 -36 13 l-29 7 7 -53 c4 -29 10 -70 13 -90 l6 -38 -41 0
-41 0 -6 48 c-4 26 -15 101 -25 167 -10 66 -21 141 -25 168 l-6 47 36 -4 c21
-3 38 -6 39 -8z m-2605 -43 c35 -17 59 -67 71 -143 32 -189 -15 -282 -143
-282 -87 0 -126 63 -134 220 -5 83 -3 101 15 136 20 39 39 53 97 72 43 15 62
14 94 -3z m-308 -68 c36 -24 69 -91 53 -107 -5 -5 -23 -12 -39 -15 -27 -6 -32
-2 -50 32 -24 46 -58 55 -76 22 -15 -29 -5 -206 16 -255 24 -57 68 -43 82 27
7 40 18 49 57 49 28 0 29 -1 23 -44 -13 -93 -57 -136 -142 -136 -85 0 -122 67
-126 230 -3 137 -2 146 35 184 30 32 39 36 83 36 35 0 60 -7 84 -23z m1889
-112 c0 -8 -5 -17 -12 -21 -8 -5 -9 -2 -5 9 3 10 2 17 -3 17 -6 0 -10 4 -10
10 0 5 7 7 15 4 8 -4 15 -12 15 -19z m-100 -85 c0 -6 -8 -10 -17 -8 -14 2 -17
-3 -15 -19 2 -15 -2 -23 -11 -23 -22 0 -26 10 -15 36 11 24 58 35 58 14z m35
-18 c-11 -2 -24 -9 -30 -14 -7 -7 -3 -9 13 -5 26 6 29 -5 7 -23 -9 -7 -25 -35
-37 -62 -14 -33 -26 -48 -39 -48 -11 0 -19 5 -19 10 0 6 8 10 17 10 13 0 14 3
5 12 -8 8 -15 8 -25 0 -14 -12 -27 -7 -27 9 0 5 8 5 18 2 14 -6 15 -4 4 9 -8
10 -10 26 -6 42 7 28 9 29 39 16 18 -7 19 -8 3 -15 -19 -8 -25 -45 -8 -45 6 0
10 4 10 10 0 5 12 34 26 65 24 51 28 54 48 43 20 -12 21 -12 1 -16z m-104
-158 c17 -16 17 -18 -2 -55 -20 -40 -34 -49 -42 -26 -2 6 -8 8 -13 4 -5 -5 -1
-14 9 -22 14 -10 15 -15 6 -21 -7 -4 -14 -3 -16 3 -2 6 -13 9 -23 6 -14 -4
-20 0 -20 11 0 10 4 14 10 11 5 -3 7 0 4 8 -3 8 2 20 11 27 8 7 15 20 15 29 0
19 18 41 34 41 5 0 17 -7 27 -16z m203 -5 c41 -32 59 -112 60 -259 1 -174 -20
-210 -122 -210 -37 0 -53 5 -70 23 -38 40 -58 127 -29 127 8 0 14 14 15 38 2
55 19 161 21 132 6 -91 23 -214 31 -231 15 -26 56 -25 71 3 18 34 7 269 -15
302 -18 28 -44 33 -66 14 -8 -7 -5 -1 8 13 12 14 22 35 22 47 0 29 38 30 74 1z
m194 4 c5 -10 27 -78 48 -150 21 -73 41 -133 44 -133 3 0 21 68 39 150 l35
151 45 -3 45 -3 3 -65 c1 -36 4 -143 7 -237 l4 -173 -39 0 -39 0 0 107 c0 58
-3 104 -6 100 -3 -3 -18 -52 -33 -109 -25 -96 -29 -103 -53 -106 -33 -4 -39 7
-68 118 -13 47 -26 89 -31 94 -5 6 -6 -40 -2 -102 l6 -112 -40 0 -40 0 -6 152
c-9 194 -9 323 0 331 14 15 72 7 81 -10z m522 -2 c19 -5 26 -14 28 -39 l3 -33
-76 7 -76 7 6 -59 c4 -32 8 -60 9 -61 1 -2 29 -4 62 -5 l59 -3 3 -39 3 -39
-66 5 -66 6 3 -72 3 -71 65 -3 c85 -4 90 -6 90 -42 l0 -31 -116 3 -117 3 -3
55 c-1 30 -5 137 -9 238 l-5 182 87 -1 c49 -1 99 -4 113 -8z m-1005 -22 c4 -6
-2 -21 -14 -33 -12 -12 -18 -26 -14 -29 3 -4 -1 -7 -10 -7 -21 0 -22 14 -2 30
9 7 14 19 11 26 -8 22 17 34 29 13z m-495 -57 c0 -92 -45 -419 -59 -426 -3 -2
-18 -6 -34 -10 -33 -8 -29 -17 -58 142 -12 67 -26 119 -30 115 -4 -4 -15 -62
-24 -128 -10 -66 -19 -123 -22 -127 -2 -5 -19 -8 -38 -8 -33 0 -34 1 -45 58
-20 106 -41 187 -77 300 -20 61 -34 114 -32 116 2 2 21 6 41 9 43 6 35 22 85
-178 l28 -110 8 60 c4 33 11 98 15 145 l7 85 36 3 36 3 26 -98 c14 -54 29
-115 32 -135 9 -56 21 -46 24 20 1 31 6 89 11 127 5 39 10 76 10 83 0 7 13 12
30 12 30 0 30 0 30 -58z m67 36 c-3 -8 -6 -5 -6 6 -1 11 2 17 5 13 3 -3 4 -12
1 -19z m-549 -178 c58 -150 102 -278 102 -300 0 -5 -17 -10 -38 -10 -36 0 -38
1 -52 53 l-15 52 -50 -4 c-63 -4 -65 -5 -65 -44 0 -64 -9 -77 -50 -77 l-38 0
5 43 c2 23 8 62 13 87 5 25 14 83 21 130 33 230 32 224 64 231 17 3 33 3 37 0
3 -3 33 -76 66 -161z m585 -101 l16 -22 7 26 c12 51 25 15 23 -64 -1 -50 2
-84 10 -92 20 -20 12 -27 -33 -27 l-44 0 -6 110 c-3 61 -8 161 -10 223 l-5
112 14 -122 c8 -74 19 -130 28 -144z m397 143 c-19 -33 -47 -60 -79 -77 -28
-14 -35 -14 -42 -3 -22 34 11 101 60 121 33 13 37 13 53 -5 13 -14 15 -24 8
-36z m770 -568 c0 -17 5 -24 20 -24 11 0 23 -7 26 -15 4 -10 10 -12 18 -7 6 5
24 12 39 14 43 8 58 -14 55 -80 -4 -76 -26 -81 -30 -8 -4 73 -22 77 -28 6 -5
-55 -21 -71 -29 -28 l-4 23 -6 -23 c-11 -42 -26 -28 -31 28 -6 68 -26 68 -22
0 3 -45 1 -50 -17 -50 -20 0 -21 6 -21 93 0 52 3 97 6 100 12 11 24 -3 24 -29z
m-370 13 c0 -7 -6 -19 -12 -26 -10 -11 -10 -14 0 -18 15 -6 16 -33 1 -33 -7 0
-8 -18 -4 -55 6 -47 5 -55 -9 -55 -13 0 -16 11 -16 53 0 29 -5 58 -11 64 -14
14 15 83 35 83 9 0 16 -6 16 -13z m686 -54 c-13 -114 -17 -133 -32 -133 -12 0
-14 9 -10 43 3 23 8 61 11 85 5 48 11 62 27 62 7 0 8 -20 4 -57z m-596 27 c0
-11 5 -20 10 -20 6 0 10 -7 10 -15 0 -8 -4 -15 -10 -15 -16 0 -12 -70 5 -76
24 -10 18 -34 -9 -34 -28 0 -36 16 -36 71 0 21 -4 39 -10 39 -13 0 -13 12 0
44 11 31 40 35 40 6z m-4482 -2 c17 -17 15 -30 -5 -27 -32 3 -37 -1 -19 -14
16 -12 17 -18 7 -50 -8 -24 -17 -34 -26 -31 -24 10 -27 42 -9 89 17 46 31 54
52 33z m3452 -32 c0 -19 6 -25 28 -28 26 -3 27 -6 30 -65 2 -52 0 -63 -13 -63
-11 0 -15 12 -15 50 0 37 -4 50 -14 50 -11 0 -16 -15 -18 -52 -3 -48 -5 -52
-32 -59 -46 -12 -66 4 -66 54 0 24 -4 47 -9 53 -15 14 -1 64 18 64 20 0 46
-51 30 -60 -14 -9 -7 -82 9 -88 9 -3 12 18 12 82 0 79 2 86 20 86 15 0 20 -7
20 -24z m864 2 c18 -26 21 -80 6 -109 -24 -44 -80 -5 -80 56 0 35 24 75 45 75
8 0 21 -10 29 -22z m282 -3 c22 -34 15 -59 -19 -63 -15 -2 -27 -9 -27 -18 0
-17 5 -17 30 -2 25 16 35 5 18 -21 -17 -27 -53 -27 -72 0 -20 29 -14 98 10
116 26 19 41 16 60 -12z m109 5 c15 -16 16 -23 6 -33 -10 -9 -15 -8 -25 6 -20
26 -26 21 -26 -23 0 -29 4 -40 15 -40 8 0 15 5 15 10 0 6 7 10 15 10 21 0 19
-16 -5 -40 -26 -26 -45 -25 -64 2 -31 44 -9 128 33 128 10 0 26 -9 36 -20z
m-1488 -16 c-4 -21 -1 -25 15 -21 29 8 50 -32 46 -89 -4 -62 -28 -73 -28 -12
0 24 -4 49 -9 57 -16 25 -32 0 -29 -47 3 -44 2 -46 -29 -53 -47 -9 -61 6 -64
71 -4 88 -1 102 19 98 9 -2 16 -8 15 -13 -1 -6 4 -16 10 -23 8 -10 7 -16 -2
-21 -16 -10 -11 -83 7 -89 9 -3 12 17 12 76 0 81 3 92 28 92 10 0 13 -8 9 -26z
m973 16 c0 -6 -7 -13 -15 -16 -11 -5 -15 -21 -15 -61 0 -46 -3 -54 -17 -51
-12 2 -18 16 -21 56 -2 29 -1 60 2 68 6 16 66 20 66 4z m818 -2 c15 -15 16
-82 2 -109 -16 -29 -58 -25 -70 7 -14 36 -12 66 6 92 17 24 43 29 62 10z
m-4948 -17 c21 -17 23 -22 12 -46 -15 -33 -15 -32 4 -39 13 -5 15 -1 10 18 -7
28 11 46 20 21 8 -21 -35 -115 -53 -115 -7 0 -13 5 -13 10 0 6 -9 19 -20 30
-18 18 -18 22 -4 56 8 20 13 38 10 41 -3 3 -12 -12 -22 -33 -9 -22 -18 -34
-21 -27 -5 14 32 103 44 103 4 0 19 -9 33 -19z m3040 5 c0 -18 -16 -29 -30
-21 -13 8 -1 35 16 35 8 0 14 -6 14 -14z m998 2 c7 -7 12 -25 12 -40 0 -21 -6
-29 -25 -34 -14 -3 -25 -10 -25 -15 0 -13 17 -11 26 2 4 8 9 8 17 0 8 -8 5
-17 -11 -33 -33 -34 -56 -15 -60 49 -4 67 32 105 66 71z m1072 -7 c16 -32 12
-68 -13 -97 -20 -23 -26 -25 -44 -15 -27 14 -36 42 -28 81 11 48 65 68 85 31z
m-1201 -23 c9 -33 9 -33 10 -5 1 25 24 47 37 34 3 -2 0 -34 -7 -71 -9 -52 -15
-66 -29 -66 -10 0 -21 10 -25 23 l-7 22 -7 -25 c-4 -14 -13 -25 -21 -25 -15 0
-38 62 -39 108 -1 33 26 37 32 5 3 -22 4 -22 15 5 15 36 29 34 41 -5z m1328
18 c1 -1 -2 -33 -7 -71 -7 -53 -14 -74 -30 -87 -29 -24 -46 -23 -65 4 -17 25
-4 38 20 18 8 -6 19 -9 25 -5 18 11 11 24 -17 27 -25 3 -28 7 -31 47 -4 59 19
85 68 76 19 -4 36 -8 37 -9z m-1678 -20 c20 -37 11 -61 -27 -64 -17 -2 -32 -8
-32 -13 0 -7 12 -8 30 -4 31 7 39 -2 18 -23 -17 -17 -53 -15 -68 3 -16 19 -15
92 1 111 19 23 64 17 78 -10z m126 1 c18 -26 20 -88 3 -105 -7 -7 -20 -12 -30
-12 -13 0 -18 -8 -18 -25 0 -14 -4 -25 -10 -25 -6 0 -10 38 -10 94 0 93 0 94
25 94 15 0 32 -10 40 -21z m1603 -15 c4 -40 18 -41 26 -2 4 21 11 30 26 30 22
0 21 -5 -29 -107 -33 -67 -44 -78 -69 -68 -15 5 -14 8 7 24 22 17 22 20 13 82
-5 35 -8 68 -5 72 10 17 28 -1 31 -31z m-2655 -3 c-17 -17 -37 -1 -22 17 8 10
15 12 23 4 7 -7 7 -13 -1 -21z m77 1 c22 -22 26 -40 10 -40 -5 0 -10 -18 -10
-39 0 -22 5 -43 10 -46 15 -9 12 -25 -5 -25 -19 0 -35 31 -35 67 0 16 -4 33
-9 39 -11 11 -3 64 10 64 5 0 18 -9 29 -20z m274 -37 c-16 -106 -29 -122 -50
-63 l-12 35 -1 -35 c-1 -28 7 -41 43 -75 81 -73 190 -172 226 -204 l35 -30
-55 -1 c-30 0 -79 -3 -108 -7 -51 -6 -55 -8 -118 -84 -36 -44 -69 -79 -73 -79
-3 0 -3 39 0 88 12 138 12 414 1 449 -7 20 -7 35 -1 38 13 9 29 -4 30 -23 0
-13 3 -12 11 6 6 12 17 22 25 22 7 0 13 -10 14 -22 1 -21 2 -20 11 5 16 44 30
32 22 -20z m46 -24 c0 -52 -3 -70 -12 -67 -13 5 -24 99 -14 124 14 36 26 9 26
-57z m-560 -39 c0 -73 -10 -90 -51 -90 -36 0 -45 14 -57 90 -10 70 -9 80 14
80 9 0 14 -11 14 -34 0 -53 12 -97 27 -103 24 -9 30 14 20 71 -6 30 -7 62 -3
72 7 18 8 18 22 0 9 -13 14 -44 14 -86z m334 31 c-2 -62 -23 -93 -48 -71 -10
8 -16 29 -16 55 0 62 8 77 39 73 25 -3 26 -6 25 -57z m-160 27 c3 -13 7 -42 9
-65 4 -37 3 -43 -14 -43 -14 0 -19 7 -19 28 0 15 -3 44 -6 65 -5 30 -4 37 10
37 8 0 18 -10 20 -22z m-66 3 c7 -4 16 -33 19 -64 5 -49 3 -57 -11 -57 -11 0
-16 9 -16 28 -1 80 -34 96 -36 16 0 -36 -5 -50 -17 -52 -12 -2 -17 9 -22 52
-8 58 -1 81 21 72 7 -3 16 -1 19 4 7 12 26 13 43 1z m-2726 -33 c-15 -15 -26
-4 -18 18 5 13 9 15 18 6 9 -9 9 -15 0 -24z m3918 -204 c0 -8 -9 -14 -20 -14
-23 0 -25 6 -7 24 14 16 27 11 27 -10z m-73 -96 c-2 -18 -4 -6 -4 27 0 33 2
48 4 33 2 -15 2 -42 0 -60z m1507 -66 c-8 -51 -14 -97 -12 -102 2 -6 19 1 38
15 37 28 90 58 90 51 0 -2 -25 -21 -55 -41 -30 -21 -55 -42 -55 -46 0 -4 25
-13 56 -19 69 -15 66 -22 -4 -11 -38 6 -52 5 -52 -4 0 -6 23 -44 50 -83 71
-101 62 -102 -12 -2 l-62 83 -12 -29 -12 -29 -4 30 c-3 29 -5 27 -57 -47 -29
-43 -56 -78 -58 -78 -10 0 7 30 56 99 l51 71 -74 0 c-41 0 -78 5 -81 10 -4 6
23 10 74 10 45 0 81 4 81 9 0 11 -78 129 -91 136 -5 4 -9 10 -9 16 0 23 20 3
65 -66 27 -41 52 -71 56 -67 3 4 12 43 19 86 12 82 20 110 26 103 2 -2 -3 -45
-12 -95z m160 -17 c-10 -8 -23 -14 -29 -14 -5 0 -1 6 9 14 11 8 24 15 30 15 5
0 1 -7 -10 -15z m-1544 -50 c-7 -8 -18 -15 -24 -15 -6 0 -2 7 8 15 25 19 32
19 16 0z m-163 -27 c-3 -7 -5 -2 -5 12 0 14 2 19 5 13 2 -7 2 -19 0 -25z m43
22 c0 -5 -2 -10 -4 -10 -3 0 -8 5 -11 10 -3 6 -1 10 4 10 6 0 11 -4 11 -10z
m93 -37 c-24 -2 -62 -2 -85 0 -24 2 -5 4 42 4 47 0 66 -2 43 -4z m-178 -83
c19 -37 27 -38 23 -2 -3 24 0 27 27 28 17 1 38 -3 48 -8 10 -5 24 -5 35 1 11
6 24 6 32 1 12 -7 9 -11 -10 -19 l-25 -10 23 -7 c35 -10 26 -27 -11 -21 -19 3
-40 2 -47 -3 -20 -12 -40 -1 -41 24 -1 20 -2 20 -6 1 -3 -11 -10 -23 -16 -27
-6 -4 -9 -10 -5 -13 9 -10 178 -12 178 -2 0 4 47 6 105 5 l106 -3 -3 -39 -3
-39 -80 -2 c-87 -1 -108 2 -99 16 3 5 -6 9 -20 9 -14 0 -26 5 -26 12 0 7 -7 5
-18 -5 -14 -13 -25 -15 -50 -8 -22 7 -32 6 -32 -1 0 -6 -6 -5 -16 3 -13 10
-17 10 -24 -2 -11 -16 -26 -4 -32 26 l-5 20 -8 -20 c-12 -27 -25 -35 -62 -35
-25 0 -36 7 -52 34 -26 41 -26 43 -1 84 17 27 25 32 60 32 34 0 42 -4 55 -30z
m1542 -107 c-2 -16 -4 -3 -4 27 0 30 2 43 4 28 2 -16 2 -40 0 -55z m-3 -58 c3
-8 1 -15 -4 -15 -6 0 -10 7 -10 15 0 8 2 15 4 15 2 0 6 -7 10 -15z"/>
<path d="M4648 6403 c6 -2 18 -2 25 0 6 3 1 5 -13 5 -14 0 -19 -2 -12 -5z"/>
<path d="M4079 5943 c-13 -17 -13 -17 6 -3 11 8 22 16 24 17 2 2 0 3 -6 3 -6
0 -17 -8 -24 -17z"/>
<path d="M3957 5930 c-3 -11 -3 -20 -1 -20 2 0 8 9 14 20 6 11 7 20 2 20 -6 0
-12 -9 -15 -20z"/>
<path d="M4390 5340 c0 -5 5 -10 10 -10 6 0 10 5 10 10 0 6 -4 10 -10 10 -5 0
-10 -4 -10 -10z"/>
<path d="M4255 5310 c-3 -5 1 -10 9 -10 8 0 18 5 21 10 3 6 -1 10 -9 10 -8 0
-18 -4 -21 -10z"/>
<path d="M4780 5206 c0 -2 7 -7 16 -10 8 -3 12 -2 9 4 -6 10 -25 14 -25 6z"/>
<path d="M4730 4980 c0 -5 5 -10 11 -10 5 0 7 5 4 10 -3 6 -8 10 -11 10 -2 0
-4 -4 -4 -10z"/>
<path d="M4560 4878 c0 -9 5 -20 10 -23 13 -8 13 5 0 25 -8 13 -10 13 -10 -2z"/>
<path d="M3067 5233 c-4 -3 -7 -20 -6 -37 l1 -31 8 35 c9 36 8 45 -3 33z"/>
<path d="M3546 4340 c-18 -44 -21 -90 -7 -90 5 0 12 6 14 13 4 7 6 8 6 1 1 -6
-6 -17 -14 -24 -17 -14 -20 -30 -5 -30 18 0 40 57 31 82 -5 13 -6 38 -4 56 7
43 -1 40 -21 -8z"/>
<path d="M3574 4223 c-3 -13 -13 -23 -20 -23 -8 0 -14 -5 -14 -11 0 -13 22
-103 26 -108 6 -7 43 43 44 58 0 11 -3 11 -17 0 -17 -13 -17 -13 -1 6 15 19
16 25 3 60 -13 36 -15 38 -21 18z"/>
<path d="M3847 4223 c-11 -11 -7 -67 6 -83 18 -23 64 -43 81 -37 22 8 20 35
-4 75 -11 17 -16 32 -12 32 4 0 0 5 -8 10 -17 11 -54 13 -63 3z"/>
<path d="M4035 4200 c3 -5 8 -10 11 -10 2 0 4 5 4 10 0 6 -5 10 -11 10 -5 0
-7 -4 -4 -10z"/>
<path d="M5335 4161 c-6 -11 9 -23 19 -14 9 9 7 23 -3 23 -6 0 -12 -4 -16 -9z"/>
<path d="M3736 4147 c3 -10 9 -15 12 -12 3 3 0 11 -7 18 -10 9 -11 8 -5 -6z"/>
<path d="M5338 4093 c7 -3 16 -2 19 1 4 3 -2 6 -13 5 -11 0 -14 -3 -6 -6z"/>
<path d="M3610 4038 c0 -8 17 -50 38 -94 21 -43 51 -109 67 -146 15 -38 32
-68 37 -68 13 0 3 28 -63 168 -33 68 -59 128 -59 132 0 5 -4 12 -10 15 -5 3
-10 0 -10 -7z"/>
<path d="M4150 4041 c0 -5 5 -13 10 -16 6 -3 10 -2 10 4 0 5 -4 13 -10 16 -5
3 -10 2 -10 -4z"/>
<path d="M4568 4023 c7 -3 16 -2 19 1 4 3 -2 6 -13 5 -11 0 -14 -3 -6 -6z"/>
<path d="M5345 3990 c3 -5 13 -10 21 -10 8 0 14 5 14 10 0 6 -9 10 -21 10 -11
0 -17 -4 -14 -10z"/>
<path d="M5340 3945 c0 -9 4 -14 9 -11 12 8 41 -4 41 -16 0 -6 -9 -8 -19 -5
-15 3 -19 0 -18 -15 1 -13 7 -18 19 -15 10 3 16 1 12 -4 -3 -5 2 -9 10 -9 11
0 13 8 9 38 -7 45 -3 39 -36 47 -21 6 -27 4 -27 -10z"/>
<path d="M3770 3685 c0 -17 65 -165 73 -165 5 0 5 10 1 23 -10 32 -73 154 -74
142z"/>
<path d="M5422 3470 c0 -14 2 -19 5 -12 2 6 2 18 0 25 -3 6 -5 1 -5 -13z"/>
<path d="M3878 3448 c-18 -6 -28 -17 -28 -29 0 -33 49 -119 68 -119 13 0 14
-2 4 -9 -14 -9 -7 -57 10 -67 11 -7 68 15 68 26 0 12 -26 19 -52 13 -19 -4
-18 -1 9 17 41 28 34 54 -13 48 -18 -2 -30 0 -28 4 3 4 11 8 19 8 26 0 27 22
5 71 -13 27 -26 49 -29 48 -3 0 -18 -5 -33 -11z m46 -64 c4 -9 2 -13 -5 -8 -6
4 -15 0 -20 -7 -7 -11 -9 -11 -9 3 0 9 6 19 13 21 6 3 13 6 13 6 1 1 5 -6 8
-15z"/>
<path d="M5441 3354 c0 -11 3 -14 6 -6 3 7 2 16 -1 19 -3 4 -6 -2 -5 -13z"/>
<path d="M5451 3314 c0 -11 3 -14 6 -6 3 7 2 16 -1 19 -3 4 -6 -2 -5 -13z"/>
<path d="M3955 3210 c-19 -8 -19 -9 2 -9 12 -1 25 4 28 9 7 12 -2 12 -30 0z"/>
<path d="M4010 3205 c0 -8 -11 -17 -25 -21 -24 -6 -31 -15 -19 -26 3 -3 21 -1
40 5 23 7 33 15 29 25 -3 7 -5 18 -5 23 0 5 -4 9 -10 9 -5 0 -10 -7 -10 -15z"/>
<path d="M4036 3136 c7 -18 -15 -31 -29 -17 -16 16 -27 14 -27 -5 0 -9 9 -18
20 -21 14 -4 19 -11 15 -23 -4 -14 14 -71 32 -99 5 -7 73 30 73 40 0 6 -15 7
-37 4 l-38 -6 28 16 c32 19 35 39 6 59 -12 8 -18 19 -15 24 9 15 -4 42 -20 42
-7 0 -11 -6 -8 -14z m34 -76 c0 -5 -7 -10 -16 -10 -8 0 -12 5 -9 10 3 6 10 10
16 10 5 0 9 -4 9 -10z"/>
<path d="M4121 2903 c-1 -15 75 -183 83 -183 3 0 -3 19 -13 43 -44 100 -69
151 -70 140z"/>
<path d="M5380 2900 c0 -5 5 -10 10 -10 6 0 10 5 10 10 0 6 -4 10 -10 10 -5 0
-10 -4 -10 -10z"/>
<path d="M5333 2796 c-6 -8 -9 -17 -6 -20 11 -11 21 -6 26 14 6 23 -3 25 -20
6z"/>
<path d="M5371 2744 c0 -11 3 -14 6 -6 3 7 2 16 -1 19 -3 4 -6 -2 -5 -13z"/>
<path d="M4235 2643 c25 -56 35 -73 35 -60 0 12 -49 117 -54 117 -3 0 6 -26
19 -57z"/>
<path d="M4271 2565 c0 -5 6 -21 14 -35 8 -14 14 -20 14 -15 0 6 -6 21 -14 35
-8 14 -14 21 -14 15z"/>
<path d="M4331 2425 c0 -5 6 -21 14 -35 8 -14 14 -20 14 -15 0 6 -6 21 -14 35
-8 14 -14 21 -14 15z"/>
<path d="M4405 2161 c-10 -17 48 -144 68 -149 14 -4 16 -7 5 -13 -9 -6 -10
-11 -2 -19 7 -7 15 -6 28 3 21 15 12 47 -14 47 -11 0 -22 5 -25 10 -3 6 3 10
14 10 23 0 24 5 11 35 -5 11 -9 14 -9 7 -1 -7 -5 -10 -11 -7 -5 3 -10 1 -10
-5 0 -6 -4 -8 -10 -5 -18 11 -11 35 10 35 11 0 20 5 20 10 0 6 -5 10 -11 10
-6 0 -8 9 -4 20 5 17 2 20 -24 20 -16 0 -32 -4 -36 -9z m35 -21 c0 -5 -5 -10
-11 -10 -5 0 -7 5 -4 10 3 6 8 10 11 10 2 0 4 -4 4 -10z"/>
<path d="M4325 2075 c6 -30 21 -52 29 -44 2 2 -5 20 -15 39 l-20 35 6 -30z"/>
<path d="M4482 1948 c6 -16 36 -34 44 -25 9 9 -15 37 -33 37 -8 0 -13 -5 -11
-12z"/>
<path d="M4533 1864 c-17 -18 -16 -34 1 -34 19 0 25 11 17 31 -5 14 -8 15 -18
3z"/>
<path d="M4712 1849 c-13 -34 -25 -85 -19 -79 9 9 36 94 32 98 -3 3 -8 -6 -13
-19z"/>
<path d="M4536 1775 c3 -16 6 -40 6 -52 0 -13 4 -23 8 -23 5 0 6 -9 3 -20 -3
-12 0 -20 7 -20 9 0 11 14 6 52 -4 29 -11 55 -15 58 -4 3 -11 12 -15 20 -3 8
-3 2 0 -15z"/>
<path d="M4560 1631 c0 -5 5 -13 10 -16 6 -3 10 -2 10 4 0 5 -4 13 -10 16 -5
3 -10 2 -10 -4z"/>
<path d="M4762 1578 c-57 -88 -59 -96 -28 -108 53 -20 89 27 61 82 -12 25 -12
33 -1 49 7 10 15 17 18 14 2 -3 5 2 5 10 0 27 -12 16 -55 -47z"/>
<path d="M4690 1451 c-7 -15 -7 -21 0 -21 12 0 25 28 17 36 -3 3 -10 -4 -17
-15z"/>
<path d="M4652 1020 c0 -19 2 -27 5 -17 2 9 2 25 0 35 -3 9 -5 1 -5 -18z"/>
<path d="M4670 861 c0 -6 5 -13 10 -16 6 -3 10 1 10 9 0 9 -4 16 -10 16 -5 0
-10 -4 -10 -9z"/>
<path d="M5225 2610 c-3 -5 -1 -10 4 -10 6 0 11 5 11 10 0 6 -2 10 -4 10 -3 0
-8 -4 -11 -10z"/>
<path d="M3403 2279 c-28 -10 -36 -52 -28 -147 12 -123 37 -163 85 -132 31 20
11 270 -23 283 -6 2 -22 1 -34 -4z"/>
<path d="M4868 1903 c7 -3 16 -2 19 1 4 3 -2 6 -13 5 -11 0 -14 -3 -6 -6z"/>
<path d="M4867 1884 c-8 -8 1 -24 14 -24 5 0 9 7 9 15 0 15 -12 20 -23 9z"/>
<path d="M4845 1850 c-3 -5 1 -10 9 -10 9 0 16 5 16 10 0 6 -4 10 -9 10 -6 0
-13 -4 -16 -10z"/>
<path d="M4216 1454 c-3 -9 -2 -22 2 -31 6 -10 9 -5 9 16 0 35 -2 38 -11 15z"/>
<path d="M3750 1641 c0 -16 -3 -43 -6 -60 -6 -29 -5 -31 25 -31 37 0 39 11 11
74 -22 53 -30 57 -30 17z"/>
<path d="M3675 1440 c3 -5 2 -10 -4 -10 -10 0 -26 -58 -18 -67 3 -2 14 -2 24
1 14 4 18 16 18 46 0 27 -4 40 -13 40 -7 0 -10 -4 -7 -10z"/>
<path d="M4793 1736 c0 -18 3 -24 9 -18 7 7 7 16 0 28 -8 14 -9 13 -9 -10z"/>
<path d="M4735 1730 c3 -5 8 -10 11 -10 2 0 4 5 4 10 0 6 -5 10 -11 10 -5 0
-7 -4 -4 -10z"/>
<path d="M4730 1665 c-14 -8 -20 -14 -15 -14 6 0 21 6 35 14 14 8 21 14 15 14
-5 0 -21 -6 -35 -14z"/>
<path d="M5110 1050 c0 -25 4 -39 10 -35 6 3 10 19 10 35 0 16 -4 32 -10 35
-6 4 -10 -10 -10 -35z"/>
<path d="M5380 1080 c0 -5 7 -10 16 -10 8 0 12 5 9 10 -3 6 -10 10 -16 10 -5
0 -9 -4 -9 -10z"/>
<path d="M5794 1076 c-8 -22 -1 -59 14 -64 8 -2 12 9 12 37 0 40 -15 55 -26
27z"/>
<path d="M861 1018 c-14 -39 -5 -51 9 -13 6 15 13 32 16 36 3 5 1 9 -4 9 -6 0
-15 -14 -21 -32z"/>
<path d="M880 970 c0 -5 5 -10 10 -10 6 0 10 5 10 10 0 6 -4 10 -10 10 -5 0
-10 -4 -10 -10z"/>
<path d="M4890 1065 c0 -8 5 -15 10 -15 6 0 10 7 10 15 0 8 -4 15 -10 15 -5 0
-10 -7 -10 -15z"/>
<path d="M5959 1085 c-14 -21 -20 -73 -10 -80 6 -3 14 0 17 8 7 20 1 85 -7 72z"/>
<path d="M6057 1063 c-11 -11 -8 -61 4 -69 15 -9 29 14 29 49 0 25 -17 36 -33
20z"/>
<path d="M4392 1049 c2 -6 8 -10 13 -10 5 0 11 4 13 10 2 6 -4 11 -13 11 -9 0
-15 -5 -13 -11z"/>
<path d="M4530 1020 c0 -29 4 -40 15 -40 11 0 15 11 15 40 0 29 -4 40 -15 40
-11 0 -15 -11 -15 -40z"/>
<path d="M3805 860 c-10 -15 -17 -288 -8 -293 17 -11 63 43 69 80 3 21 8 40
11 43 3 3 26 5 51 5 40 0 47 3 47 20 0 13 -6 20 -17 19 -10 -1 -16 2 -13 6 6
10 -109 130 -124 130 -5 0 -13 -5 -16 -10z"/>
<path d="M3660 999 c0 -11 5 -17 10 -14 6 3 10 13 10 21 0 8 -4 14 -10 14 -5
0 -10 -9 -10 -21z"/>
<path d="M3655 949 c-4 -6 -5 -13 -2 -16 7 -7 27 6 27 18 0 12 -17 12 -25 -2z"/>
<path d="M4410 419 c0 -5 5 -7 10 -4 6 3 10 8 10 11 0 2 -4 4 -10 4 -5 0 -10
-5 -10 -11z"/>
<path d="M4459 402 c-12 -22 -13 -30 -3 -39 6 -7 15 -9 20 -5 4 4 4 1 0 -5
-12 -21 -54 -16 -61 7 -3 11 -13 20 -21 20 -13 0 -12 -5 3 -30 14 -24 24 -30
53 -30 28 0 39 6 52 28 15 25 15 29 0 55 -21 34 -23 34 -43 -1z"/>
<path d="M4640 334 c0 -8 5 -12 10 -9 6 3 10 10 10 16 0 5 -4 9 -10 9 -5 0
-10 -7 -10 -16z"/>
<path d="M4830 340 c0 -5 5 -10 10 -10 6 0 10 5 10 10 0 6 -4 10 -10 10 -5 0
-10 -4 -10 -10z"/>
<path d="M3820 7833 c-47 -92 -86 -170 -88 -174 -2 -4 9 -9 25 -12 25 -4 24
-4 -7 -6 -31 -1 -37 -6 -52 -41 -13 -33 -14 -40 -3 -40 8 0 19 9 25 20 6 10
26 22 44 26 19 3 37 12 40 20 3 7 12 11 21 8 18 -7 20 7 3 25 -11 11 -10 13 5
7 10 -3 24 -6 30 -6 7 0 6 -4 -3 -10 -8 -5 -12 -10 -8 -10 16 0 103 33 109 41
3 5 28 10 56 11 41 2 50 5 41 15 -8 10 -4 13 17 13 16 0 25 -3 22 -7 -9 -8 25
-33 36 -26 5 3 3 9 -4 14 -11 7 -10 9 4 9 9 0 17 5 17 10 0 6 7 10 16 10 9 0
29 9 44 20 18 13 31 16 35 10 7 -11 66 -14 64 -2 -3 18 3 32 31 67 27 34 90
152 90 169 0 3 -118 6 -262 6 l-263 0 -85 -167z m194 -88 c-10 -8 -23 -14 -29
-14 -5 -1 1 8 15 19 14 10 27 17 29 14 3 -2 -4 -11 -15 -19z m99 8 c-7 -2 -19
-2 -25 0 -7 3 -2 5 12 5 14 0 19 -2 13 -5z"/>
<path d="M4216 7732 c-3 -5 1 -15 9 -22 21 -17 27 -9 10 13 -7 10 -16 14 -19
9z"/>
<path d="M4255 7730 c3 -5 8 -10 11 -10 2 0 4 5 4 10 0 6 -5 10 -11 10 -5 0
-7 -4 -4 -10z"/>
<path d="M3825 7510 c-19 -8 -19 -9 2 -9 12 -1 25 4 28 9 7 12 -2 12 -30 0z"/>
<path d="M4673 7459 c-5 -5 -33 -10 -61 -11 -32 0 -57 -6 -69 -16 -20 -19 -44
-22 -55 -7 -4 6 -8 -1 -8 -14 0 -23 -1 -24 -20 -6 -19 17 -20 17 -20 1 0 -9
-4 -14 -10 -11 -15 9 -12 -2 6 -30 11 -16 26 -25 43 -25 15 0 31 -4 37 -9 5
-4 31 -14 58 -20 26 -7 55 -18 63 -26 8 -8 23 -15 33 -15 10 0 20 -5 22 -11 2
-6 27 -14 56 -17 52 -5 64 -22 15 -22 -23 0 -20 -4 28 -38 30 -21 81 -46 115
-55 75 -21 98 -21 60 -1 -22 12 -25 18 -15 24 10 7 6 12 -14 19 -16 6 -31 11
-34 11 -9 0 -74 69 -73 77 1 4 6 14 12 21 8 9 3 12 -23 13 -34 0 -34 0 -11 16
27 19 29 33 2 26 -14 -4 -20 0 -20 11 0 9 -4 17 -10 17 -5 1 -15 2 -22 3 -21
2 -20 24 2 36 30 16 11 36 -42 44 -32 5 -39 9 -28 16 8 5 10 10 5 10 -6 0 -16
-5 -22 -11z"/>
<path d="M4375 7417 c4 -36 38 -96 43 -75 3 14 -33 98 -42 98 -2 0 -2 -11 -1
-23z"/>
<path d="M4246 7362 c10 -19 25 -39 33 -45 9 -8 8 0 -5 21 -10 19 -25 39 -33
45 -9 8 -8 0 5 -21z"/>
<path d="M4165 7350 c10 -11 20 -20 22 -20 2 0 -2 9 -9 20 -7 11 -17 20 -22
20 -5 0 -1 -9 9 -20z"/>
<path d="M4211 7365 c0 -13 28 -50 33 -44 3 2 -4 15 -14 29 -11 14 -20 21 -19
15z"/>
<path d="M4100 7335 c0 -2 21 -20 48 -40 26 -20 46 -39 44 -42 -2 -2 0 -8 4
-11 4 -4 4 -2 1 5 -4 6 -2 13 3 15 6 2 -14 20 -45 40 -30 20 -55 35 -55 33z"/>
<path d="M4056 7316 c6 -16 34 -29 43 -20 6 6 -27 34 -41 34 -4 0 -5 -6 -2
-14z"/>
<path d="M3998 7273 c7 -3 16 -2 19 1 4 3 -2 6 -13 5 -11 0 -14 -3 -6 -6z"/>
<path d="M4134 7241 c3 -5 16 -11 28 -14 22 -6 22 -5 4 8 -22 17 -40 20 -32 6z"/>
<path d="M3225 7110 c-3 -6 1 -7 9 -4 18 7 21 14 7 14 -6 0 -13 -4 -16 -10z"/>
<path d="M4895 7100 c22 -11 53 -20 70 -19 25 0 27 2 10 8 -81 33 -138 41 -80
11z"/>
<path d="M4947 7036 c15 -19 31 -32 36 -29 9 6 -41 63 -55 63 -5 0 3 -15 19
-34z"/>
<path d="M5186 6991 c-6 -10 71 -69 117 -88 33 -15 35 -3 6 38 -14 20 -29 29
-47 29 -19 0 -23 3 -14 9 10 6 8 10 -10 14 -32 9 -46 8 -52 -2z"/>
<path d="M3595 6970 c3 -5 8 -10 11 -10 2 0 4 5 4 10 0 6 -5 10 -11 10 -5 0
-7 -4 -4 -10z"/>
<path d="M5143 6907 c28 -24 36 -47 15 -47 -7 -1 -2 -10 12 -21 14 -12 25 -26
25 -33 0 -6 5 -11 12 -11 6 0 15 -4 20 -9 5 -6 2 -6 -7 -1 -9 5 -12 4 -7 -1 5
-5 16 -9 24 -9 9 0 18 -10 20 -23 3 -26 -6 -23 -44 11 -26 23 -30 17 -9 -16 8
-12 17 -32 21 -44 5 -19 3 -22 -12 -16 -14 5 -13 0 8 -28 15 -19 33 -34 41
-34 8 0 46 -19 84 -43 39 -23 74 -42 78 -42 4 0 19 -9 33 -20 14 -11 29 -20
34 -20 4 0 6 9 4 20 -2 11 0 20 5 20 4 0 6 9 3 20 -3 12 0 20 7 20 7 0 6 5 -4
15 -19 20 -32 19 -16 0 11 -13 10 -14 -4 -9 -9 3 -16 14 -16 24 0 10 -7 25
-15 34 -20 20 -19 26 5 26 24 0 25 9 6 54 -17 42 -101 120 -130 123 -12 1 -49
14 -82 28 -32 15 -77 33 -99 41 l-40 14 28 -23z m311 -179 c10 -38 6 -45 -9
-18 -17 29 -18 40 -6 40 5 0 11 -10 15 -22z"/>
<path d="M3105 6891 c-9 -18 -13 -36 -10 -41 8 -13 32 -2 40 18 5 14 4 15 -6
5 -22 -22 -30 -14 -13 12 9 14 14 28 11 31 -3 3 -13 -8 -22 -25z"/>
<path d="M3055 6800 c-8 -16 -25 -34 -36 -41 -11 -6 -18 -13 -16 -16 10 -10
51 26 63 57 17 39 9 39 -11 0z"/>
<path d="M5110 6764 c0 -7 9 -22 20 -35 10 -13 19 -19 20 -13 0 7 -9 22 -20
35 -10 13 -19 19 -20 13z"/>
<path d="M2936 6635 c-9 -26 -7 -32 5 -12 6 10 9 21 6 23 -2 3 -7 -2 -11 -11z"/>
<path d="M2963 6608 c-18 -24 -24 -38 -16 -38 10 0 36 40 30 46 -2 3 -9 -1
-14 -8z"/>
<path d="M2913 6535 c-9 -25 4 -29 17 -6 7 15 7 21 0 21 -6 0 -13 -7 -17 -15z"/>
<path d="M2890 6479 c-7 -11 -10 -23 -7 -25 2 -2 9 7 15 21 14 30 7 33 -8 4z"/>
<path d="M2836 6363 c-6 -14 -5 -15 5 -6 7 7 10 15 7 18 -3 3 -9 -2 -12 -12z"/>
<path d="M742 6338 c-6 -8 -14 -32 -18 -54 -8 -53 9 -68 69 -59 41 6 45 10 50
38 8 51 -12 81 -54 85 -21 2 -40 -2 -47 -10z"/>
<path d="M1020 6284 c0 -39 20 -67 43 -58 23 9 51 84 30 84 -3 0 -15 -7 -25
-17 -22 -19 -36 -10 -18 12 10 13 9 15 -9 15 -17 0 -21 -6 -21 -36z"/>
<path d="M1572 6233 c3 -48 3 -48 42 -51 46 -4 53 4 48 58 l-4 40 -45 0 -44 0
3 -47z"/>
<path d="M2111 6240 c-17 -10 -10 -61 10 -73 9 -6 25 -7 35 -3 16 6 16 9 4 16
-13 8 -12 10 3 10 9 0 17 6 17 14 0 25 -47 50 -69 36z"/>
<path d="M2785 6211 c-3 -5 -1 -12 5 -16 5 -3 10 1 10 9 0 18 -6 21 -15 7z"/>
<path d="M1152 6138 c-18 -18 -15 -87 3 -95 9 -3 36 0 60 7 41 12 45 15 45 44
0 41 -16 56 -60 56 -20 0 -41 -5 -48 -12z"/>
<path d="M1432 6138 c-7 -7 -12 -29 -12 -49 0 -41 7 -46 75 -51 l40 -3 -2 49
c-1 26 -4 50 -6 53 -11 11 -84 12 -95 1z"/>
<path d="M1614 5992 c-46 -3 -55 -20 -46 -80 4 -27 8 -31 45 -35 23 -2 45 -1
49 2 12 10 15 101 4 109 -6 4 -30 6 -52 4z"/>
<path d="M1422 5866 c-5 -6 -6 -38 -3 -71 l6 -60 55 0 55 0 3 51 c3 59 -5 69
-66 82 -29 7 -44 6 -50 -2z"/>
<path d="M1702 5827 c-8 -9 -10 -31 -6 -61 6 -44 8 -46 38 -46 47 0 57 12 59
66 l2 49 -41 3 c-26 2 -45 -2 -52 -11z"/>
<path d="M1575 5679 c-15 -23 -24 -83 -15 -99 9 -17 23 -18 78 -6 33 8 33 8
30 59 l-3 52 -42 3 c-24 2 -44 -2 -48 -9z"/>
<path d="M5488 5506 c-19 -14 -24 -36 -10 -36 10 0 42 33 42 43 0 11 -13 8
-32 -7z"/>
<path d="M2740 5463 c0 -49 12 -73 41 -88 51 -27 59 -21 53 37 -6 61 -9 67
-32 66 -9 -1 -27 2 -39 6 -20 6 -23 4 -23 -21z"/>
<path d="M1564 5386 c-3 -13 -4 -42 -2 -67 l3 -44 60 0 60 0 -3 50 c-3 59 -13
71 -70 78 -37 5 -43 3 -48 -17z"/>
<path d="M1836 5354 c-3 -9 -6 -30 -6 -48 0 -31 2 -33 35 -33 20 0 41 8 51 18
14 15 13 19 -10 42 -14 14 -27 22 -30 19 -3 -3 -6 0 -6 6 0 18 -27 14 -34 -4z"/>
<path d="M2625 5337 c-4 -8 -5 -34 -3 -58 l3 -44 45 0 45 0 3 40 c3 51 -6 64
-51 72 -27 4 -38 2 -42 -10z"/>
<path d="M2497 5160 c-3 -30 -3 -58 2 -63 4 -4 28 -7 52 -5 l44 3 -3 45 c-5
59 -15 69 -52 48 -28 -16 -29 -16 -32 5 -2 12 -7 -3 -11 -33z"/>
<path d="M4840 110 c0 -5 5 -10 10 -10 6 0 10 5 10 10 0 6 -4 10 -10 10 -5 0
-10 -4 -10 -10z"/>
<path d="M4778 93 c7 -3 16 -2 19 1 4 3 -2 6 -13 5 -11 0 -14 -3 -6 -6z"/>
<path d="M4820 75 c-9 -11 -8 -14 9 -12 22 1 28 12 12 21 -5 3 -14 -1 -21 -9z"/>
<path d="M4862 68 c6 -18 28 -21 28 -4 0 9 -7 16 -16 16 -9 0 -14 -5 -12 -12z"/>
<path d="M4910 15 c7 -8 16 -15 21 -15 5 0 6 7 3 15 -4 8 -13 15 -21 15 -13 0
-13 -3 -3 -15z"/>
</g>
</svg>
